<svg width="65" height="65" viewBox="0 0 65 65" fill="none" xmlns="http://www.w3.org/2000/svg">
<path d="M58.5 62.7998H49.5C49.1 62.7998 48.7 63.0998 48.7 63.5998C48.7 64.0998 49 64.3998 49.5 64.3998H58.5C58.9 64.3998 59.3 64.0998 59.3 63.5998C59.3 63.0998 58.9 62.7998 58.5 62.7998Z" fill="#02699A"/>
<path d="M63.5 62.7998H62.5C62.1 62.7998 61.7 63.0998 61.7 63.5998C61.7 64.0998 62 64.3998 62.5 64.3998H63.5C63.9 64.3998 64.3 64.0998 64.3 63.5998C64.3 63.0998 63.9 62.7998 63.5 62.7998Z" fill="#02699A"/>
<path d="M9.50001 60.7997H8.30001V59.4997C8.30001 59.0997 8.00001 58.6997 7.50001 58.6997C7.00001 58.6997 6.70001 58.9997 6.70001 59.4997V60.7997H5.50001C5.10001 60.7997 4.70001 61.0997 4.70001 61.5997C4.70001 62.0997 5.00001 62.3997 5.50001 62.3997H6.80001V63.6997C6.80001 64.0997 7.10001 64.4997 7.60001 64.4997C8.10001 64.4997 8.40001 64.1997 8.40001 63.6997V62.3997H9.70001C10.1 62.3997 10.5 62.0997 10.5 61.5997C10.5 61.0997 9.90001 60.7997 9.50001 60.7997Z" fill="#02699A"/>
<path d="M63.5 0.799805H1.50001C1.10001 0.799805 0.700012 1.0998 0.700012 1.5998V53.5998C0.700012 53.9998 1.00001 54.3998 1.50001 54.3998H10.9C11.3 54.3998 11.7 54.0998 11.7 53.5998C11.7 53.0998 11.4 52.7998 10.9 52.7998H2.30001V10.2998H62.8V52.7998H54.1C53.7 52.7998 53.3 53.0998 53.3 53.5998C53.3 54.0998 53.6 54.3998 54.1 54.3998H63.5C63.9 54.3998 64.3 54.0998 64.3 53.5998V1.5998C64.3 1.0998 63.9 0.799805 63.5 0.799805ZM2.30001 8.7998V2.2998H62.8V8.7998H2.30001Z" fill="#02699A"/>
<path d="M58.5 49.2997C58.9 49.2997 59.3 48.9997 59.3 48.4997V14.4997C59.3 14.0997 59 13.6997 58.5 13.6997H6.50001C6.10001 13.6997 5.70001 13.9997 5.70001 14.4997V48.4997C5.70001 48.8997 6.00001 49.2997 6.50001 49.2997C7.00001 49.2997 7.30001 48.9997 7.30001 48.4997V15.2997H57.8V48.5997C57.8 48.8997 58.1 49.2997 58.5 49.2997Z" fill="#02699A"/>
<path d="M7.5 6.5C8.05228 6.5 8.5 6.05228 8.5 5.5C8.5 4.94772 8.05228 4.5 7.5 4.5C6.94772 4.5 6.5 4.94772 6.5 5.5C6.5 6.05228 6.94772 6.5 7.5 6.5Z" fill="#02699A"/>
<path d="M15.5 6.5C16.0523 6.5 16.5 6.05228 16.5 5.5C16.5 4.94772 16.0523 4.5 15.5 4.5C14.9477 4.5 14.5 4.94772 14.5 5.5C14.5 6.05228 14.9477 6.5 15.5 6.5Z" fill="#02699A"/>
<path d="M11.5 6.5C12.0523 6.5 12.5 6.05228 12.5 5.5C12.5 4.94772 12.0523 4.5 11.5 4.5C10.9477 4.5 10.5 4.94772 10.5 5.5C10.5 6.05228 10.9477 6.5 11.5 6.5Z" fill="#02699A"/>
<path d="M50.7 53.9997L48 51.2997C48.7 49.9997 49.3 48.5997 49.7 47.1997H53.5C53.9 47.1997 54.3 46.8997 54.3 46.3997V38.4997C54.3 38.0997 54 37.6997 53.5 37.6997H49.7C49.3 36.2997 48.7 34.8997 48 33.5997L50.7 30.8997C51 30.5997 51 30.0997 50.7 29.7997L45.1 24.1997C44.8 23.8997 44.3 23.8997 44 24.1997L41.3 26.9997C40 26.2997 38.6 25.6997 37.2 25.2997V21.4997C37.2 21.0997 36.9 20.6997 36.4 20.6997H28.5C28.1 20.6997 27.7 20.9997 27.7 21.4997V25.2997C26.3 25.6997 24.9 26.2997 23.6 26.9997L21 24.2997C20.7 23.9997 20.2 23.9997 19.9 24.2997L14.3 29.8997C14 30.1997 14 30.6997 14.3 30.9997L17 33.6997C16.3 34.9997 15.7 36.3997 15.3 37.7997H11.5C11.1 37.7997 10.7 38.0997 10.7 38.5997V46.4997C10.7 46.8997 11 47.2997 11.5 47.2997H15.3C15.7 48.6997 16.3 50.0997 17 51.3997L14.3 53.9997C14 54.2997 14 54.7997 14.3 55.0997L19.9 60.6997C20.2 60.9997 20.7 60.9997 21 60.6997L23.7 57.9997C25 58.6997 26.4 59.2997 27.8 59.6997V63.4997C27.8 63.8997 28.1 64.2997 28.6 64.2997H36.5C36.9 64.2997 37.3 63.9997 37.3 63.4997V59.6997C38.7 59.2997 40.1 58.6997 41.4 57.9997L44.1 60.6997C44.4 60.9997 44.9 60.9997 45.2 60.6997L50.8 55.0997C51 54.7997 51 54.2997 50.7 53.9997ZM44.6 59.0997L42 56.4997C41.8 56.2997 41.4 56.1997 41.1 56.3997C39.6 57.2997 38 57.9997 36.3 58.3997C36 58.4997 35.7 58.7997 35.7 59.0997V62.7997H29.3V59.0997C29.3 58.7997 29.1 58.4997 28.7 58.3997C27 57.9997 25.4 57.2997 23.9 56.3997C23.6 56.1997 23.2 56.2997 23 56.4997L20.4 59.0997L15.9 54.5997L18.5 51.9997C18.7 51.7997 18.8 51.3997 18.6 51.0997C17.7 49.5997 17 47.9997 16.6 46.2997C16.5 45.9997 16.2 45.6997 15.9 45.6997H12.2V39.2997H15.9C16.2 39.2997 16.5 39.0997 16.6 38.6997C17 36.9997 17.7 35.3997 18.6 33.8997C18.8 33.5997 18.7 33.1997 18.5 32.9997L15.9 30.3997L20.4 25.8997L23 28.4997C23.2 28.6997 23.6 28.7997 23.9 28.5997C25.4 27.6997 27 26.9997 28.7 26.5997C29 26.4997 29.3 26.1997 29.3 25.8997V22.1997H35.7V25.8997C35.7 26.1997 35.9 26.4997 36.3 26.5997C38 26.9997 39.6 27.6997 41.1 28.5997C41.4 28.7997 41.8 28.6997 42 28.4997L44.6 25.8997L49.1 30.3997L46.5 32.9997C46.3 33.1997 46.2 33.5997 46.4 33.8997C47.3 35.3997 48 36.9997 48.4 38.6997C48.5 38.9997 48.8 39.2997 49.1 39.2997H52.8V45.6997H49.1C48.8 45.6997 48.5 45.8997 48.4 46.2997C48 47.9997 47.3 49.5997 46.4 51.0997C46.2 51.3997 46.3 51.7997 46.5 51.9997L49.1 54.5997L44.6 59.0997Z" fill="#02699A"/>
<path d="M32.5 31.2998C26.3 31.2998 21.2 36.2998 21.2 42.5998C21.2 48.8998 26.2 53.8998 32.5 53.8998C38.8 53.8998 43.8 48.8998 43.8 42.5998C43.8 36.2998 38.7 31.2998 32.5 31.2998ZM32.5 52.2998C27.1 52.2998 22.7 47.8998 22.7 42.4998C22.7 37.0998 27.1 32.6998 32.5 32.6998C37.9 32.6998 42.3 37.0998 42.3 42.4998C42.3 47.8998 37.9 52.2998 32.5 52.2998Z" fill="#02699A"/>
</svg>
