<svg width="65" height="65" viewBox="0 0 65 65" fill="none" xmlns="http://www.w3.org/2000/svg">
<g clip-path="url(#clip0)">
<path d="M62.7745 4.65479H43.2481C42.7214 4.65479 42.2943 5.08173 42.2943 5.60858C42.2943 6.13544 42.7214 6.56238 43.2481 6.56238H62.7745C62.9498 6.56238 63.0924 6.70495 63.0924 6.88027V17.2447H61.0365C60.5735 12.3061 56.4063 8.42771 51.3487 8.42771C46.2912 8.42771 42.1239 12.3061 41.6609 17.2447H1.9076V6.88027C1.9076 6.70495 2.05029 6.56238 2.22549 6.56238H38.4757C39.0024 6.56238 39.4295 6.13544 39.4295 5.60858C39.4295 5.08173 39.0024 4.65479 38.4757 4.65479H2.22549C0.998359 4.65479 0 5.65314 0 6.88027V47.9722C0 49.1993 0.998359 50.1977 2.22549 50.1977H13.5432V50.3432C13.5432 51.1477 13.9593 51.8683 14.6558 52.2705C15.3526 52.6729 16.1846 52.6725 16.8813 52.2705L20.4714 50.1977H31.5185L31.5876 50.9253C31.6292 51.3638 31.368 51.7712 30.9521 51.916C30.1321 52.2366 28.7111 52.4997 28.258 53.3576L27.7301 54.1803C27.0677 55.2131 27.3689 56.5924 28.4018 57.2551L32.6723 59.9944C33.6701 60.6618 35.1207 60.3426 35.7472 59.323L45.541 44.0547H48.4805C49.7076 44.0547 50.706 43.0563 50.706 41.8292V41.2021H52.0565C53.2836 41.2021 54.282 40.2037 54.282 38.9766V34.7837C54.282 33.5566 53.2836 32.5582 52.0565 32.5582H50.706V31.931C50.706 30.7039 49.7076 29.7056 48.4805 29.7056H33.5913C31.969 29.7056 30.3688 29.2768 28.9638 28.4656L16.8816 21.4899C16.1847 21.0876 15.3528 21.0877 14.6561 21.4899C13.9594 21.8922 13.5435 22.6127 13.5435 23.4172V32.5582H10.1816C8.95451 32.5582 7.95615 33.5566 7.95615 34.7837V38.9766C7.95615 40.2037 8.95451 41.2021 10.1816 41.2021H13.5434V48.2901H2.22549C2.05017 48.2901 1.9076 48.1475 1.9076 47.9722V19.1522H41.6668C42.1654 24.0542 46.3173 27.8922 51.3487 27.8922C56.3801 27.8922 60.532 24.0542 61.0307 19.1522H63.0924V47.9722C63.0924 48.1475 62.9497 48.2901 62.7745 48.2901H46.8162C46.2895 48.2901 45.8625 48.717 45.8625 49.2439C45.8625 49.7707 46.2895 50.1977 46.8162 50.1977H62.7745C64.0016 50.1977 65 49.1993 65 47.9722V6.88027C65 5.65314 64.0016 4.65479 62.7745 4.65479ZM31.7746 47.8757C31.6908 48.0064 31.6231 48.1459 31.5687 48.2901H23.7755L28.9638 45.2946C30.3688 44.4834 31.969 44.0547 33.5913 44.0547H34.2254L31.7746 47.8757ZM34.1416 58.293C33.9958 58.4603 33.905 58.4801 33.7024 58.389L29.4319 55.6497C29.2843 55.5551 29.2412 55.358 29.3359 55.2103L29.8637 54.3875C30.0517 54.0773 30.3607 54.0964 31.5802 53.7172C32.7997 53.338 33.6115 52.0601 33.4867 50.7451L33.3313 49.107C33.3247 49.0366 33.342 48.965 33.3802 48.9054L36.4918 44.0546H43.2748L34.1416 58.293ZM52.0566 34.4658C52.2319 34.4658 52.3745 34.6084 52.3745 34.7837V38.9766C52.3745 39.1519 52.2318 39.2945 52.0566 39.2945H50.7061V34.4657H52.0566V34.4658ZM48.4806 31.6132C48.6559 31.6132 48.7985 31.7557 48.7985 31.931V41.8292C48.7985 42.0045 48.6558 42.1471 48.4806 42.1471H40.8734V31.613H48.4806V31.6132ZM15.4508 23.4172C15.4742 23.1318 15.7082 23.0346 15.9277 23.1418L19.2681 25.0704V43.9355C19.2681 44.4623 19.6951 44.8893 20.2219 44.8893C20.7486 44.8893 21.1757 44.4623 21.1757 43.9355V26.1718L28.01 30.1176C29.7046 31.0961 31.6346 31.6132 33.5913 31.6132H38.9659V42.1472H33.5913C31.6346 42.1472 29.7046 42.6643 28.01 43.6427L15.9278 50.6184C15.6633 50.7272 15.4908 50.624 15.4508 50.3432C15.4508 50.3431 15.4508 23.4172 15.4508 23.4172ZM10.1816 39.2946C10.0063 39.2946 9.86375 39.152 9.86375 38.9767V34.7838C9.86375 34.6085 10.0063 34.4659 10.1816 34.4659H13.5434V39.2947H10.1816V39.2946ZM51.3487 25.9846C47.0342 25.9846 43.5241 22.4744 43.5241 18.1598C43.5241 13.8452 47.0342 10.3352 51.3487 10.3352C55.6632 10.3352 59.1734 13.8453 59.1734 18.1599C59.1734 22.4746 55.6632 25.9846 51.3487 25.9846Z" fill="#02699A"/>
<path d="M7.04999 13.7275C8.07716 13.7275 8.90985 12.8948 8.90985 11.8677C8.90985 10.8405 8.07716 10.0078 7.04999 10.0078C6.02281 10.0078 5.19012 10.8405 5.19012 11.8677C5.19012 12.8948 6.02281 13.7275 7.04999 13.7275Z" fill="#02699A"/>
<path d="M12.706 13.7275C13.7332 13.7275 14.5659 12.8948 14.5659 11.8677C14.5659 10.8405 13.7332 10.0078 12.706 10.0078C11.6788 10.0078 10.8461 10.8405 10.8461 11.8677C10.8461 12.8948 11.6788 13.7275 12.706 13.7275Z" fill="#02699A"/>
<path d="M18.362 13.7275C19.3892 13.7275 20.2219 12.8948 20.2219 11.8677C20.2219 10.8405 19.3892 10.0078 18.362 10.0078C17.3348 10.0078 16.5021 10.8405 16.5021 11.8677C16.5021 12.8948 17.3348 13.7275 18.362 13.7275Z" fill="#02699A"/>
<path d="M52.3958 17.2199C51.7561 16.9938 51.0506 16.7221 50.6688 16.4227C50.6262 16.3893 50.5794 16.2545 50.6139 16.0713C50.6307 15.9826 50.7079 15.686 50.9977 15.5987C51.6562 15.4001 52.0748 15.728 52.1203 15.7662L52.1045 15.752L52.22 15.8169C53.1597 16.3448 54.1163 15.1528 53.3976 14.3496C53.1728 14.1421 52.7745 13.891 52.2577 13.7465V13.6286C52.2577 13.1017 51.8306 12.6748 51.3039 12.6748C50.7772 12.6748 50.3501 13.1017 50.3501 13.6286V13.8052C49.5222 14.094 48.9091 14.8173 48.7392 15.7181C48.5756 16.5865 48.8639 17.4316 49.4914 17.9237C50.0886 18.3921 50.9347 18.7267 51.7599 19.0184C52.284 19.2038 52.3372 19.5807 52.2894 19.8644C52.2217 20.2676 51.8823 20.7036 51.2976 20.7074C50.6302 20.7111 50.4567 20.6845 49.9629 20.3616C49.4905 20.0527 48.8462 20.2165 48.586 20.7365C48.3656 21.1767 48.5405 21.7141 48.9543 21.9811C49.4759 22.3177 49.8912 22.4818 50.35 22.5573V22.6912C50.35 23.218 50.7771 23.645 51.3038 23.645C51.8305 23.645 52.2576 23.218 52.2576 22.6912V22.453C53.3269 22.0827 54.0117 21.1267 54.1706 20.1808C54.3923 18.8633 53.6789 17.6735 52.3958 17.2199Z" fill="#02699A"/>
</g>
<defs>
<clipPath id="clip0">
<rect width="65" height="65" fill="white"/>
</clipPath>
</defs>
</svg>
