<svg width="65" height="65" viewBox="0 0 65 65" fill="none" xmlns="http://www.w3.org/2000/svg">
<g clip-path="url(#clip0)">
<path d="M19.6701 17.908C16.7841 17.908 13.9629 18.7638 11.5632 20.3672C9.16361 21.9705 7.29331 24.2495 6.18888 26.9158C5.08445 29.5822 4.79548 32.5161 5.35851 35.3467C5.92155 38.1773 7.3113 40.7773 9.35203 42.818C11.3928 44.8588 13.9928 46.2485 16.8234 46.8116C19.6539 47.3746 22.5879 47.0856 25.2542 45.9812C27.9206 44.8768 30.1995 43.0065 31.8029 40.6068C33.4063 38.2072 34.2621 35.386 34.2621 32.4999C34.2577 28.6313 32.7189 24.9223 29.9833 22.1868C27.2477 19.4512 23.5388 17.9124 19.6701 17.908ZM19.6701 45.3146C17.7907 45.3147 15.9343 44.9007 14.2329 44.102C12.5316 43.3033 11.0272 42.1396 9.82668 40.6935L10.5884 39.0893C10.8057 38.6342 11.1472 38.2497 11.5735 37.9801C11.9998 37.7106 12.4936 37.567 12.998 37.5659H26.3443C26.8487 37.567 27.3426 37.7106 27.769 37.9802C28.1953 38.2497 28.5369 38.6342 28.7544 39.0893L29.5136 40.6935C28.313 42.1396 26.8086 43.3033 25.1073 44.102C23.406 44.9007 21.5496 45.3147 19.6701 45.3146ZM30.6896 39.0274L30.3596 38.3296C29.9976 37.5704 29.4285 36.9289 28.7179 36.479C28.0072 36.0292 27.1839 35.7893 26.3428 35.787H12.9954C12.1544 35.7893 11.3311 36.0291 10.6205 36.479C9.90993 36.9289 9.34094 37.5704 8.97915 38.3296L8.64907 39.0279C7.49475 37.0822 6.8761 34.8656 6.85598 32.6034C6.83586 30.3411 7.41499 28.1139 8.53452 26.148C9.65404 24.1821 11.2741 22.5476 13.2299 21.4106C15.1858 20.2737 17.4078 19.6748 19.6701 19.6748C21.9324 19.6748 24.1544 20.2737 26.1103 21.4106C28.0662 22.5476 29.6862 24.1821 30.8057 26.148C31.9252 28.1139 32.5044 30.3411 32.4843 32.6034C32.4641 34.8656 31.8455 37.0822 30.6912 39.0279L30.6896 39.0274Z" fill="#02699A"/>
<path d="M19.6701 21.8953C18.2664 21.8967 16.9205 22.455 15.9278 23.4476C14.9352 24.4401 14.3768 25.786 14.3752 27.1897V28.7132C14.3752 30.1175 14.933 31.4643 15.926 32.4573C16.919 33.4503 18.2658 34.0081 19.6701 34.0081C21.0744 34.0081 22.4212 33.4503 23.4142 32.4573C24.4072 31.4643 24.9651 30.1175 24.9651 28.7132V27.1897C24.9633 25.786 24.4049 24.4403 23.4123 23.4477C22.4196 22.4552 21.0739 21.8969 19.6701 21.8953ZM23.1877 28.7116C23.1877 29.6446 22.8171 30.5393 22.1575 31.199C21.4978 31.8587 20.6031 32.2293 19.6701 32.2293C18.7372 32.2293 17.8425 31.8587 17.1828 31.199C16.5231 30.5393 16.1525 29.6446 16.1525 28.7116V27.1882C16.1525 26.2553 16.5231 25.3605 17.1828 24.7009C17.8425 24.0412 18.7372 23.6706 19.6701 23.6706C20.6031 23.6706 21.4978 24.0412 22.1575 24.7009C22.8171 25.3605 23.1877 26.2553 23.1877 27.1882V28.7116Z" fill="#02699A"/>
<path d="M62.0801 10.3894H2.91992C2.1458 10.3903 1.40365 10.6983 0.856264 11.2457C0.308877 11.7931 0.000940693 12.5352 0 13.3093L0 51.6908C0.000940693 52.4649 0.308877 53.2071 0.856264 53.7545C1.40365 54.3019 2.1458 54.6098 2.91992 54.6107H62.0801C62.8542 54.6098 63.5963 54.3019 64.1437 53.7545C64.6911 53.2071 64.9991 52.4649 65 51.6908V13.3093C64.9991 12.5352 64.6911 11.7931 64.1437 11.2457C63.5963 10.6983 62.8542 10.3903 62.0801 10.3894ZM63.2227 51.6908C63.2224 51.9938 63.1019 52.2842 62.8877 52.4984C62.6735 52.7127 62.383 52.8331 62.0801 52.8334H2.91992C2.61697 52.8331 2.32651 52.7127 2.11229 52.4984C1.89808 52.2842 1.77761 51.9938 1.77734 51.6908V13.3093C1.77761 13.0064 1.89808 12.7159 2.11229 12.5017C2.32651 12.2875 2.61697 12.167 2.91992 12.1667H62.0801C62.383 12.167 62.6735 12.2875 62.8877 12.5017C63.1019 12.7159 63.2224 13.0064 63.2227 13.3093V51.6908Z" fill="#02699A"/>
<path d="M59.0332 17.908H39.4824C39.2468 17.9081 39.0208 18.0018 38.8542 18.1684C38.6876 18.335 38.5939 18.561 38.5938 18.7966V23.8788C38.5938 24.1145 38.6874 24.3405 38.854 24.5072C39.0207 24.6739 39.2467 24.7675 39.4824 24.7675H59.0332C59.2689 24.7675 59.4949 24.6739 59.6616 24.5072C59.8282 24.3405 59.9219 24.1145 59.9219 23.8788V18.7966C59.9217 18.561 59.8281 18.335 59.6614 18.1684C59.4948 18.0018 59.2689 17.9081 59.0332 17.908ZM58.1445 22.9901H40.3711V19.6853H58.1445V22.9901Z" fill="#02699A"/>
<path d="M59.0332 28.5718H39.4824C39.2467 28.5718 39.0207 28.6654 38.854 28.8321C38.6874 28.9987 38.5938 29.2248 38.5938 29.4604C38.5938 29.6961 38.6874 29.9222 38.854 30.0888C39.0207 30.2555 39.2467 30.3491 39.4824 30.3491H59.0332C59.2689 30.3491 59.4949 30.2555 59.6616 30.0888C59.8282 29.9222 59.9219 29.6961 59.9219 29.4604C59.9219 29.2248 59.8282 28.9987 59.6616 28.8321C59.4949 28.6654 59.2689 28.5718 59.0332 28.5718Z" fill="#02699A"/>
<path d="M56.0498 35.9299C56.2855 35.9299 56.5115 35.8363 56.6782 35.6696C56.8448 35.503 56.9385 35.277 56.9385 35.0413C56.9385 34.8056 56.8448 34.5795 56.6782 34.4129C56.5115 34.2462 56.2855 34.1526 56.0498 34.1526H42.4658C42.2301 34.1526 42.0041 34.2462 41.8374 34.4129C41.6708 34.5795 41.5771 34.8056 41.5771 35.0413C41.5771 35.277 41.6708 35.503 41.8374 35.6696C42.0041 35.8363 42.2301 35.9299 42.4658 35.9299H56.0498Z" fill="#02699A"/>
<path d="M59.0332 39.7339H39.4824C39.2467 39.7339 39.0207 39.8275 38.854 39.9942C38.6874 40.1608 38.5938 40.3869 38.5938 40.6226C38.5938 40.8582 38.6874 41.0843 38.854 41.2509C39.0207 41.4176 39.2467 41.5112 39.4824 41.5112H59.0332C59.2689 41.5112 59.4949 41.4176 59.6616 41.2509C59.8282 41.0843 59.9219 40.8582 59.9219 40.6226C59.9219 40.3869 59.8282 40.1608 59.6616 39.9942C59.4949 39.8275 59.2689 39.7339 59.0332 39.7339Z" fill="#02699A"/>
<path d="M56.0498 45.3147H42.4658C42.2301 45.3147 42.0041 45.4083 41.8374 45.575C41.6708 45.7416 41.5771 45.9677 41.5771 46.2034C41.5771 46.4391 41.6708 46.6651 41.8374 46.8318C42.0041 46.9984 42.2301 47.092 42.4658 47.092H56.0498C56.2855 47.092 56.5115 46.9984 56.6782 46.8318C56.8448 46.6651 56.9385 46.4391 56.9385 46.2034C56.9385 45.9677 56.8448 45.7416 56.6782 45.575C56.5115 45.4083 56.2855 45.3147 56.0498 45.3147Z" fill="#02699A"/>
</g>
<defs>
<clipPath id="clip0">
<rect width="65" height="65" fill="white"/>
</clipPath>
</defs>
</svg>
