<svg width="65" height="65" viewBox="0 0 65 65" fill="none" xmlns="http://www.w3.org/2000/svg">
<g clip-path="url(#clip0)">
<path d="M11.619 7.14261H11.6036C9.2526 7.17701 7.34043 9.11863 7.34043 11.4708V17.656H0.956719C0.42834 17.656 0 18.0843 0 18.6127C0 19.1411 0.42834 19.5694 0.956719 19.5694H7.34056V24.5996H0.956719C0.42834 24.5996 0 25.0279 0 25.5563C0 26.0847 0.42834 26.513 0.956719 26.513H7.34056V31.543H0.956719C0.42834 31.5431 0 31.9715 0 32.4998C0 33.0282 0.42834 33.4566 0.956719 33.4566H7.34056V38.4866H0.956719C0.42834 38.4866 0 38.9149 0 39.4433C0 39.9717 0.42834 40.4 0.956719 40.4H7.34056V45.4301H0.956719C0.42834 45.4301 0 45.8585 0 46.3869C0 46.9152 0.42834 47.3436 0.956719 47.3436H7.34056V50.6152C7.34056 51.1433 7.76915 51.5719 8.29728 51.5719C8.8254 51.5719 9.25399 51.1433 9.25399 50.6152V11.4709C9.25399 10.1583 10.3204 9.07534 11.6331 9.0549C12.1612 9.04729 12.5835 8.61349 12.5746 8.08409C12.5668 7.56105 12.1408 7.14261 11.619 7.14261Z" fill="white"/>
<path d="M52.0721 55.5481H11.6701C10.684 55.5481 9.80639 54.9588 9.43264 54.0466C9.2323 53.5568 8.67485 53.3234 8.18507 53.5236C7.69515 53.7239 7.46181 54.2826 7.66202 54.7711C8.33043 56.4053 9.90338 57.4614 11.6701 57.4614H17.6563V64.0429C17.6563 64.5713 18.0846 64.9996 18.613 64.9996C19.1414 64.9996 19.5697 64.5713 19.5697 64.0429V57.4614H24.5998V64.0429C24.5998 64.5713 25.0282 64.9996 25.5566 64.9996C26.0849 64.9996 26.5133 64.5713 26.5133 64.0429V57.4614H31.5433V64.0429C31.5433 64.5713 31.9716 64.9996 32.5 64.9996C33.0284 64.9996 33.4567 64.5713 33.4567 64.0429V57.4614H38.4867V64.0429C38.4867 64.5713 38.9151 64.9996 39.4435 64.9996C39.9718 64.9996 40.4002 64.5713 40.4002 64.0429V57.4614H45.4303V64.0429C45.4303 64.5713 45.8587 64.9996 46.387 64.9996C46.9154 64.9996 47.3438 64.5713 47.3438 64.0429V57.4614H52.0721C52.6002 57.4614 53.0288 57.0328 53.0288 56.5047C53.0288 55.9755 52.6002 55.5481 52.0721 55.5481Z" fill="white"/>
<path d="M45.4757 16.2674H19.5242C17.8378 16.2674 16.4666 17.6387 16.4666 19.325V45.2779C16.4666 46.9644 17.8379 48.3356 19.5242 48.3356H45.4758C47.1623 48.3356 48.5335 46.9642 48.5335 45.2779V19.325C48.5335 17.6386 47.1622 16.2674 45.4757 16.2674ZM18.3799 19.325C18.3799 18.6936 18.8926 18.1808 19.5241 18.1808H39.3142V28.1729C37.5846 28.5467 36.2183 29.9129 35.8447 31.6427H28.7942V26.7366C30.6018 26.3832 31.9693 24.7873 31.9693 22.8777C31.9693 20.7103 30.205 18.9462 28.0366 18.9462C26.1269 18.9462 24.5312 20.3136 24.1777 22.1199H18.3799V19.325ZM40.2712 29.9843C41.7126 29.9843 42.885 31.1578 42.885 32.5994C42.885 34.0409 41.7127 35.2132 40.2712 35.2132C38.8193 35.2132 37.656 34.0294 37.656 32.5994C37.6562 31.1667 38.8226 29.9843 40.2712 29.9843ZM28.0366 24.897C26.9302 24.897 26.0172 23.9972 26.0172 22.8777C26.0172 21.7653 26.9229 20.8596 28.0366 20.8596C29.1502 20.8596 30.0559 21.7653 30.0559 22.8777C30.0559 24.001 29.1413 24.897 28.0366 24.897ZM23.9047 40.5338C23.3498 40.2225 22.9748 39.6269 22.9748 38.9469C22.9748 37.943 23.7925 37.1265 24.7965 37.1265C25.8004 37.1265 26.6168 37.943 26.6168 38.9469C26.6167 40.3381 25.1121 41.2163 23.9047 40.5338ZM31.6425 46.4222H25.2238V42.6565C27.0824 42.4447 28.5303 40.8616 28.5303 38.9469C28.5303 36.888 26.8554 35.2131 24.7965 35.2131C22.7363 35.2131 21.0614 36.888 21.0614 38.9469C21.0614 40.4777 21.9875 41.798 23.3103 42.3732V46.4222H19.5242C18.8928 46.4222 18.38 45.9081 18.38 45.2779V24.0333H24.2772C24.2853 24.0465 24.7995 25.9974 26.8808 26.637V32.5994C26.8808 33.1275 27.3094 33.5561 27.8375 33.5561H31.6425V46.4222ZM46.6201 45.2779C46.6201 45.9081 46.1073 46.4222 45.4758 46.4222H33.556V42.2848H46.6201V45.2779ZM46.6201 40.3713H33.556V33.5561H35.8447C36.2848 35.5946 38.1025 37.1266 40.2712 37.1266C42.7676 37.1266 44.7984 35.0958 44.7984 32.5994C44.7984 30.4308 43.2664 28.613 41.2279 28.1729C41.2279 28.1729 41.2277 28.1729 41.2276 28.1729V18.1808H45.4757C46.1072 18.1808 46.6199 18.6936 46.6199 19.325V40.3713H46.6201Z" fill="white"/>
<path d="M64.0433 26.5133C64.5717 26.5133 65 26.0849 65 25.5566C65 25.0282 64.5717 24.5998 64.0433 24.5998H57.6595V19.5697H64.0433C64.5717 19.5697 65 19.1414 65 18.613C65 18.0846 64.5717 17.6563 64.0433 17.6563H57.6595V11.4711C57.6595 9.08438 55.718 7.14162 53.33 7.14162H47.3438V0.956719C47.3438 0.42834 46.9154 0 46.3871 0C45.8587 0 45.4303 0.42834 45.4303 0.956719V7.14149H40.4002V0.956719C40.4002 0.42834 39.9719 0 39.4435 0C38.9151 0 38.4868 0.42834 38.4868 0.956719V7.14149H33.4568V0.956719C33.4568 0.42834 33.0284 0 32.5 0C31.9717 0 31.5433 0.42834 31.5433 0.956719V7.14149H26.5133V0.956719C26.5133 0.42834 26.085 0 25.5566 0C25.0282 0 24.5999 0.42834 24.5999 0.956719V7.14149H19.5697V0.956719C19.5697 0.42834 19.1414 0 18.613 0C18.0846 0 17.6563 0.42834 17.6563 0.956719V7.14149H15.446C14.9166 7.14149 14.4893 7.57009 14.4893 8.09821C14.4893 8.62634 14.9166 9.05493 15.446 9.05493C20.4578 9.05493 49.319 9.05493 53.33 9.05493C54.663 9.05493 55.746 10.1392 55.746 11.471V53.1322C55.746 53.7993 55.4807 54.4206 54.9973 54.8811C54.6146 55.2459 54.5993 55.8519 54.9641 56.2333C55.1529 56.4309 55.4043 56.5304 55.6568 56.5304C55.8941 56.5304 56.1313 56.4425 56.3176 56.2664C57.1825 55.4411 57.6596 54.3274 57.6596 53.1322V47.3437H64.0434C64.5718 47.3437 65.0002 46.9154 65.0002 46.387C65.0002 45.8586 64.5718 45.4303 64.0434 45.4303H57.6596V40.4002H64.0434C64.5718 40.4002 65.0002 39.9718 65.0002 39.4434C65.0002 38.9151 64.5718 38.4867 64.0434 38.4867H57.6596V33.4567H64.0434C64.5718 33.4567 65.0002 33.0284 65.0002 32.5C65.0002 31.9716 64.5718 31.5433 64.0434 31.5433H57.6596V26.5133H64.0433Z" fill="white"/>
</g>
<defs>
<clipPath id="clip0">
<rect width="65" height="65" fill="white"/>
</clipPath>
</defs>
</svg>
