<svg width="65" height="65" viewBox="0 0 65 65" fill="none" xmlns="http://www.w3.org/2000/svg">
<g clip-path="url(#clip0)">
<path d="M19.5002 6.50098H5.41701V8.66762H19.5002V6.50098Z" fill="#02699A"/>
<path d="M19.5002 10.834H5.41701V13.0006H19.5002V10.834Z" fill="#02699A"/>
<path d="M15.1669 15.1675H5.41701V17.3341H15.1669V15.1675Z" fill="#02699A"/>
<path d="M15.1669 19.5005H5.41701V21.6671H15.1669V19.5005Z" fill="#02699A"/>
<path d="M64.9996 62.8335H0.000414371V65.0001H64.9996V62.8335Z" fill="#02699A"/>
<path d="M62.7192 9.26603L58.3859 0.599475C58.1188 0.0640439 57.4684 -0.153433 56.9329 0.113741C56.9327 0.113877 56.9324 0.114012 56.9321 0.114147L48.2656 4.44743C47.7301 4.71487 47.5128 5.36581 47.7802 5.90124C48.0477 6.43667 48.6986 6.65401 49.234 6.38657L55.5108 3.25036L53.7981 8.14046C46.2699 29.5804 26.88 44.6218 4.24161 46.5832L4.42577 48.7498C27.9172 46.7148 48.0367 31.1045 55.8445 8.85545L57.5929 3.85918L60.7801 10.2345C61.0475 10.77 61.6984 10.9873 62.2339 10.7198C62.7694 10.4524 62.9866 9.8016 62.7192 9.26603Z" fill="#02699A"/>
<path d="M13.0002 52H5.41701C4.81875 52 4.33369 52.4851 4.33369 53.0833V59.5832C4.33369 60.1815 4.81875 60.6666 5.41701 60.6666H13.0002C13.5985 60.6666 14.0836 60.1815 14.0836 59.5832V53.0833C14.0836 52.4851 13.5985 52 13.0002 52ZM11.9169 58.4999H6.50033V54.1666H11.9169V58.4999Z" fill="#02699A"/>
<path d="M24.9168 48.75H17.3335C16.7353 48.75 16.2502 49.2351 16.2502 49.8333V59.5832C16.2502 60.1815 16.7353 60.6665 17.3335 60.6665H24.9168C25.515 60.6665 26.0001 60.1815 26.0001 59.5832V49.8333C26.0001 49.2351 25.515 48.75 24.9168 48.75ZM23.8335 58.4999H18.4169V50.9166H23.8335V58.4999Z" fill="#02699A"/>
<path d="M36.8332 43.3335H29.25C28.6517 43.3335 28.1667 43.8186 28.1667 44.4168V59.5833C28.1667 60.1816 28.6517 60.6666 29.25 60.6666H36.8332C37.4315 60.6666 37.9165 60.1816 37.9165 59.5833V44.4168C37.9165 43.8186 37.4315 43.3335 36.8332 43.3335ZM35.7499 58.5H30.3333V45.5001H35.7499V58.5Z" fill="#02699A"/>
<path d="M48.7498 35.7505H41.1666C40.5683 35.7505 40.0833 36.2355 40.0833 36.8338V59.5835C40.0833 60.1818 40.5683 60.6668 41.1666 60.6668H48.7498C49.3481 60.6668 49.8332 60.1818 49.8332 59.5835V36.8338C49.8332 36.2355 49.3481 35.7505 48.7498 35.7505ZM47.6665 58.5002H42.2499V37.9171H47.6665V58.5002Z" fill="#02699A"/>
<path d="M60.6664 20.584H53.0831C52.4849 20.584 51.9998 21.069 51.9998 21.6673V59.5835C51.9998 60.1818 52.4849 60.6668 53.0831 60.6668H60.6664C61.2646 60.6668 61.7497 60.1818 61.7497 59.5835V21.6673C61.7497 21.069 61.2646 20.584 60.6664 20.584ZM59.583 58.5002H54.1664V22.7506H59.583V58.5002Z" fill="#02699A"/>
</g>
<defs>
<clipPath id="clip0">
<rect width="65" height="65" fill="white"/>
</clipPath>
</defs>
</svg>
