<svg width="65" height="65" viewBox="0 0 65 65" fill="none" xmlns="http://www.w3.org/2000/svg">
<path d="M10.9814 3.17383C10.2812 3.17383 9.71191 3.74313 9.71191 4.44336C9.71191 5.14359 10.2812 5.71289 10.9814 5.71289C11.6817 5.71289 12.251 5.14359 12.251 4.44336C12.251 3.74313 11.6817 3.17383 10.9814 3.17383Z" fill="#02699A"/>
<path d="M15.4248 3.17383C14.7246 3.17383 14.1553 3.74313 14.1553 4.44336C14.1553 5.14359 14.7246 5.71289 15.4248 5.71289C16.125 5.71289 16.6943 5.14359 16.6943 4.44336C16.6943 3.74313 16.125 3.17383 15.4248 3.17383Z" fill="#02699A"/>
<path d="M19.8682 3.17383C19.1679 3.17383 18.5986 3.74313 18.5986 4.44336C18.5986 5.14359 19.1679 5.71289 19.8682 5.71289C20.5684 5.71289 21.1377 5.14359 21.1377 4.44336C21.1377 3.74313 20.5684 3.17383 19.8682 3.17383Z" fill="#02699A"/>
<path d="M54.9072 0H10.0928C8.16765 0 6.60156 1.56609 6.60156 3.49121V55.7969C6.60156 56.3231 7.02805 56.749 7.55371 56.749C8.07938 56.749 8.50586 56.3231 8.50586 55.7969V30.3418H24.5387C24.9319 31.4502 25.9902 32.2461 27.2314 32.2461H37.7686C39.0098 32.2461 40.0681 31.4502 40.4613 30.3418H56.4941V61.5088C56.4941 62.3841 55.7825 63.0957 54.9072 63.0957H10.0928C9.21749 63.0957 8.50586 62.3841 8.50586 61.5088V60.2402C8.50586 59.7146 8.07938 59.2881 7.55371 59.2881C7.02805 59.2881 6.60156 59.7146 6.60156 60.2402V61.5088C6.60156 63.4339 8.16765 65 10.0928 65H54.9072C56.8324 65 58.3984 63.4339 58.3984 61.5088V3.49121C58.3984 1.56609 56.8324 0 54.9072 0ZM37.7686 30.3418H27.2314C26.7063 30.3418 26.2793 29.9148 26.2793 29.3896C26.2793 28.8645 26.7063 28.4375 27.2314 28.4375H37.7686C38.2937 28.4375 38.7207 28.8645 38.7207 29.3896C38.7207 29.9148 38.2937 30.3418 37.7686 30.3418ZM56.4941 28.4375H40.4613C40.0681 27.3291 39.0098 26.5332 37.7686 26.5332H27.2314C25.9902 26.5332 24.9319 27.3291 24.5387 28.4375H8.50586V8.88672H53.0029C53.5286 8.88672 53.9551 8.46073 53.9551 7.93457C53.9551 7.40841 53.5286 6.98242 53.0029 6.98242H8.50586V3.49121C8.50586 2.61593 9.21749 1.9043 10.0928 1.9043H54.9072C55.7825 1.9043 56.4941 2.61593 56.4941 3.49121V28.4375Z" fill="#02699A"/>
<path d="M24.8193 14.8535C24.8193 14.3274 24.3929 13.9014 23.8672 13.9014H16.7578C16.2321 13.9014 15.8057 14.3274 15.8057 14.8535C15.8057 15.3797 16.2321 15.8057 16.7578 15.8057H23.8672C24.3929 15.8057 24.8193 15.3797 24.8193 14.8535Z" fill="#02699A"/>
<path d="M27.6758 15.8057H37.3242C37.8499 15.8057 38.2764 15.3797 38.2764 14.8535C38.2764 14.3274 37.8499 13.9014 37.3242 13.9014H27.6758C27.1501 13.9014 26.7236 14.3274 26.7236 14.8535C26.7236 15.3797 27.1501 15.8057 27.6758 15.8057Z" fill="#02699A"/>
<path d="M48.2422 13.9014H41.1328C40.6071 13.9014 40.1807 14.3274 40.1807 14.8535C40.1807 15.3797 40.6071 15.8057 41.1328 15.8057H48.2422C48.7679 15.8057 49.1943 15.3797 49.1943 14.8535C49.1943 14.3274 48.7679 13.9014 48.2422 13.9014Z" fill="#02699A"/>
<path d="M31.5479 18.6621C31.5479 18.1359 31.1214 17.71 30.5957 17.71H21.582C21.0564 17.71 20.6299 18.1359 20.6299 18.6621C20.6299 19.1883 21.0564 19.6143 21.582 19.6143H30.5957C31.1214 19.6143 31.5479 19.1883 31.5479 18.6621Z" fill="#02699A"/>
<path d="M43.418 17.71H34.4043C33.8786 17.71 33.4521 18.1359 33.4521 18.6621C33.4521 19.1883 33.8786 19.6143 34.4043 19.6143H43.418C43.9436 19.6143 44.3701 19.1883 44.3701 18.6621C44.3701 18.1359 43.9436 17.71 43.418 17.71Z" fill="#02699A"/>
<path d="M39.2285 21.5186H26.4062C25.8806 21.5186 25.4541 21.9445 25.4541 22.4707C25.4541 22.9969 25.8806 23.4229 26.4062 23.4229H39.2285C39.7542 23.4229 40.1807 22.9969 40.1807 22.4707C40.1807 21.9445 39.7542 21.5186 39.2285 21.5186Z" fill="#02699A"/>
<path d="M18.1543 34.0869C15.2845 34.0869 12.9492 36.4222 12.9492 39.292C12.9492 42.1618 15.2845 44.4971 18.1543 44.4971C21.0241 44.4971 23.3594 42.1618 23.3594 39.292C23.3594 36.4222 21.0241 34.0869 18.1543 34.0869ZM18.1543 42.5928C16.3343 42.5928 14.8535 41.112 14.8535 39.292C14.8535 37.472 16.3343 35.9912 18.1543 35.9912C19.9743 35.9912 21.4551 37.472 21.4551 39.292C21.4551 41.112 19.9743 42.5928 18.1543 42.5928Z" fill="#02699A"/>
<path d="M14.8535 46.4014C14.3279 46.4014 13.9014 46.8274 13.9014 47.3535C13.9014 47.8797 14.3279 48.3057 14.8535 48.3057H21.4551C21.9807 48.3057 22.4072 47.8797 22.4072 47.3535C22.4072 46.8274 21.9807 46.4014 21.4551 46.4014H14.8535Z" fill="#02699A"/>
<path d="M32.5 34.0869C29.6302 34.0869 27.2949 36.4222 27.2949 39.292C27.2949 42.1618 29.6302 44.4971 32.5 44.4971C35.3698 44.4971 37.7051 42.1618 37.7051 39.292C37.7051 36.4222 35.3698 34.0869 32.5 34.0869ZM32.5 42.5928C30.68 42.5928 29.1992 41.112 29.1992 39.292C29.1992 37.472 30.68 35.9912 32.5 35.9912C34.32 35.9912 35.8008 37.472 35.8008 39.292C35.8008 41.112 34.32 42.5928 32.5 42.5928Z" fill="#02699A"/>
<path d="M36.7529 47.3535C36.7529 46.8274 36.3264 46.4014 35.8008 46.4014H29.1992C28.6736 46.4014 28.2471 46.8274 28.2471 47.3535C28.2471 47.8797 28.6736 48.3057 29.1992 48.3057H35.8008C36.3264 48.3057 36.7529 47.8797 36.7529 47.3535Z" fill="#02699A"/>
<path d="M46.8457 34.0869C43.9759 34.0869 41.6406 36.4222 41.6406 39.292C41.6406 42.1618 43.9759 44.4971 46.8457 44.4971C49.7155 44.4971 52.0508 42.1618 52.0508 39.292C52.0508 36.4222 49.7155 34.0869 46.8457 34.0869ZM46.8457 42.5928C45.0257 42.5928 43.5449 41.112 43.5449 39.292C43.5449 37.472 45.0257 35.9912 46.8457 35.9912C48.6657 35.9912 50.1465 37.472 50.1465 39.292C50.1465 41.112 48.6657 42.5928 46.8457 42.5928Z" fill="#02699A"/>
<path d="M43.5449 46.4014C43.0193 46.4014 42.5928 46.8274 42.5928 47.3535C42.5928 47.8797 43.0193 48.3057 43.5449 48.3057H50.1465C50.6721 48.3057 51.0986 47.8797 51.0986 47.3535C51.0986 46.8274 50.6721 46.4014 50.1465 46.4014H43.5449Z" fill="#02699A"/>
<path d="M12.8223 59.6045C12.8223 60.4798 13.5339 61.1914 14.4092 61.1914H29.2627C30.138 61.1914 30.8496 60.4798 30.8496 59.6045V52.3682C30.8496 51.4929 30.138 50.7812 29.2627 50.7812H14.4092C13.5339 50.7812 12.8223 51.4929 12.8223 52.3682V59.6045ZM19.6589 59.2871L21.162 57.784C21.5334 57.4126 22.1375 57.4131 22.5089 57.784L24.012 59.2871H19.6589ZM14.7266 52.6855H28.9453V59.2871H26.7048L23.8553 56.4376C22.7415 55.3238 20.9294 55.3238 19.8156 56.4376L16.9656 59.2871H14.7266V52.6855Z" fill="#02699A"/>
<path d="M34.1504 52.3682V59.6045C34.1504 60.4798 34.862 61.1914 35.7373 61.1914H50.5908C51.4661 61.1914 52.1777 60.4798 52.1777 59.6045V52.3682C52.1777 51.4929 51.4661 50.7812 50.5908 50.7812H35.7373C34.862 50.7812 34.1504 51.4929 34.1504 52.3682ZM40.987 59.2871L42.4901 57.784C42.8616 57.4126 43.4656 57.4131 43.837 57.784L45.3401 59.2871H40.987ZM36.0547 52.6855H50.2734V59.2871H48.0329L45.1834 56.4376C44.0696 55.3238 42.2575 55.3238 41.1437 56.4376L38.2937 59.2871H36.0547V52.6855Z" fill="#02699A"/>
</svg>
