<svg width="61" height="61" viewBox="0 0 61 61" fill="none" xmlns="http://www.w3.org/2000/svg">
<path d="M16.2812 4.09375H18.3125V6.125H16.2812V4.09375Z" fill="#217CA7"/>
<path d="M20.3438 4.09375H28.4688V6.125H20.3438V4.09375Z" fill="#217CA7"/>
<path d="M39.6406 43.7031C39.639 45.0494 39.1035 46.3401 38.1515 47.2921C37.1995 48.2441 35.9088 48.7796 34.5625 48.7812H16.0091L19.5008 42.7342C19.3903 43.0455 19.332 43.3729 19.3281 43.7031C19.3281 44.5112 19.6491 45.2862 20.2205 45.8576C20.7919 46.429 21.5669 46.75 22.375 46.75H26.4375C27.2456 46.75 28.0206 46.429 28.592 45.8576C29.1634 45.2862 29.4844 44.5112 29.4844 43.7031C29.4844 42.895 29.1634 42.1201 28.592 41.5487C28.0206 40.9773 27.2456 40.6562 26.4375 40.6562H22.375C21.8914 40.6572 21.415 40.7735 20.9854 40.9955C20.5558 41.2175 20.1854 41.5389 19.905 41.9329C20.3083 40.9827 20.3339 39.9144 19.9764 38.9461C19.6189 37.9777 18.9053 37.1823 17.9814 36.7221C17.0574 36.2619 15.9926 36.1717 15.0044 36.4698C14.0161 36.768 13.1789 37.432 12.6636 38.3264L9.21046 44.3105C9.1854 44.109 9.17251 43.9062 9.17186 43.7031V7.14062C9.17348 5.79432 9.70901 4.50361 10.661 3.55163C11.613 2.59965 12.9037 2.06411 14.25 2.0625H34.5625C35.4535 2.06457 36.3283 2.30009 37.0999 2.74558C37.8715 3.19107 38.5129 3.83099 38.9601 4.60156L40.7182 3.58594C40.0921 2.50728 39.1943 1.6115 38.1143 0.987814C37.0343 0.364132 35.8097 0.0343262 34.5625 0.03125H14.25C12.3651 0.0334004 10.5581 0.783113 9.22528 2.11591C7.89248 3.44871 7.14276 5.25576 7.14061 7.14062V26.7422C6.49429 27.043 5.97389 27.5608 5.66999 28.2057L1.06007 38.2066C0.377632 39.6735 0.0263833 41.2727 0.0312386 42.8906V60.9688H2.06249V42.8906C2.05796 41.5677 2.34508 40.26 2.90343 39.0607L7.14061 29.8673V43.7031C7.13992 44.9162 7.45082 46.109 8.0435 47.1674C8.11997 47.3387 8.24235 47.4854 8.39709 47.5913C8.55183 47.6973 8.73288 47.7583 8.92018 47.7677C9.10748 47.777 9.29372 47.7343 9.45825 47.6444C9.62278 47.5544 9.75918 47.4206 9.85233 47.2578L14.4226 39.342C14.6939 38.8793 15.1372 38.5426 15.6558 38.4055C16.1743 38.2684 16.7261 38.342 17.1906 38.6102C17.6551 38.8784 17.9947 39.3195 18.1353 39.8371C18.2758 40.3548 18.2059 40.907 17.9408 41.3733L13.3705 49.2891C13.2797 49.4462 13.2326 49.6248 13.2342 49.8062C13.2358 49.9877 13.286 50.1654 13.3796 50.3209L15.5551 53.9366C16.0296 54.7275 16.2806 55.6325 16.2812 56.5548V60.9586H18.3125V56.5548C18.3123 55.2639 17.9613 53.9973 17.2969 52.8905L16.0466 50.8125H34.5625C36.4474 50.8103 38.2544 50.0606 39.5872 48.7278C40.92 47.395 41.6697 45.588 41.6719 43.7031V38.625H39.6406V43.7031ZM22.375 42.6875H26.4375C26.7069 42.6875 26.9652 42.7945 27.1556 42.985C27.3461 43.1754 27.4531 43.4338 27.4531 43.7031C27.4531 43.9725 27.3461 44.2308 27.1556 44.4213C26.9652 44.6117 26.7069 44.7188 26.4375 44.7188H22.375C22.1056 44.7188 21.8473 44.6117 21.6568 44.4213C21.4664 44.2308 21.3594 43.9725 21.3594 43.7031C21.3594 43.4338 21.4664 43.1754 21.6568 42.985C21.8473 42.7945 22.1056 42.6875 22.375 42.6875Z" fill="#217CA7"/>
<path d="M58.0336 12.0358C55.7495 8.76635 52.3428 6.4511 48.4621 5.53083C44.5815 4.61056 40.4979 5.14955 36.9889 7.04518C33.4799 8.94081 30.7906 12.0607 29.433 15.8108C28.0754 19.5609 28.1443 23.6793 29.6266 27.3819L26.1938 33.2014C26.0947 33.3689 26.0459 33.5613 26.0531 33.7558C26.0603 33.9503 26.1232 34.1386 26.2344 34.2983C26.3484 34.4577 26.5053 34.5815 26.6869 34.6552C26.8685 34.7289 27.0673 34.7495 27.2602 34.7147L33.8922 33.4756C36.1442 35.4944 38.9166 36.8419 41.8953 37.3655C42.8313 37.5264 43.7792 37.6079 44.7289 37.6092C47.7016 37.6084 50.6171 36.7921 53.1581 35.2493C55.6991 33.7065 57.7681 31.4962 59.1401 28.8591C60.5121 26.2219 61.1344 23.259 60.9393 20.2927C60.7442 17.3264 59.7392 14.4705 58.0336 12.0358ZM58.7242 23.8272C58.2775 26.3608 57.1518 28.7257 55.467 30.67C53.7823 32.6142 51.6015 34.0649 49.1573 34.8675C46.713 35.6701 44.0968 35.7945 41.5874 35.2274C39.078 34.6604 36.7695 33.4231 34.9078 31.6475C34.7173 31.4707 34.4669 31.3727 34.207 31.3733C34.1459 31.3716 34.0848 31.375 34.0242 31.3834L29.0781 32.3077L31.6375 27.9811C31.7171 27.8417 31.7639 27.6861 31.7745 27.526C31.785 27.3659 31.759 27.2055 31.6984 27.0569C30.5657 24.4934 30.2227 21.6505 30.7133 18.8912C31.3678 15.1768 33.4711 11.8744 36.5605 9.71074C38.0902 8.63938 39.8159 7.87981 41.6392 7.4754C43.4624 7.07099 45.3475 7.02965 47.1867 7.35375C49.0259 7.67785 50.7833 8.36103 52.3585 9.3643C53.9337 10.3676 55.2959 11.6713 56.3672 13.201C57.4386 14.7307 58.1982 16.4564 58.6026 18.2797C59.007 20.1029 59.0483 21.988 58.7242 23.8272Z" fill="#217CA7"/>
<path d="M51.8281 15.2656H48.7812V14.25C48.7812 13.1726 48.3532 12.1392 47.5914 11.3774C46.8295 10.6155 45.7962 10.1875 44.7188 10.1875C43.6413 10.1875 42.608 10.6155 41.8461 11.3774C41.0843 12.1392 40.6562 13.1726 40.6562 14.25V15.2656H37.6094C37.34 15.2656 37.0817 15.3726 36.8912 15.5631C36.7008 15.7536 36.5938 16.0119 36.5938 16.2812V28.4688C36.5962 29.2761 36.9179 30.0497 37.4888 30.6206C38.0597 31.1914 38.8333 31.5132 39.6406 31.5156H49.7969C50.6042 31.5132 51.3778 31.1914 51.9487 30.6206C52.5196 30.0497 52.8413 29.2761 52.8438 28.4688V16.2812C52.8438 16.0119 52.7367 15.7536 52.5463 15.5631C52.3558 15.3726 52.0975 15.2656 51.8281 15.2656ZM42.6875 14.25C42.6875 13.7113 42.9015 13.1946 43.2824 12.8137C43.6634 12.4328 44.18 12.2188 44.7188 12.2188C45.2575 12.2188 45.7741 12.4328 46.1551 12.8137C46.536 13.1946 46.75 13.7113 46.75 14.25V15.2656H42.6875V14.25ZM50.8125 28.4688C50.8125 28.7381 50.7055 28.9964 50.515 29.1869C50.3246 29.3774 50.0662 29.4844 49.7969 29.4844H39.6406C39.3713 29.4844 39.1129 29.3774 38.9225 29.1869C38.732 28.9964 38.625 28.7381 38.625 28.4688V27.4531H50.8125V28.4688ZM50.8125 25.4219H38.625V17.2969H40.6562V19.3281H42.6875V17.2969H46.75V19.3281H48.7812V17.2969H50.8125V25.4219Z" fill="#217CA7"/>
<path d="M20.6414 13.5317L19.0773 15.0958C18.0245 14.399 16.7505 14.118 15.5022 14.3073C14.254 14.4967 13.1206 15.1428 12.3218 16.1205C11.523 17.0982 11.1158 18.3377 11.1791 19.5986C11.2425 20.8595 11.7718 22.0519 12.6645 22.9446C13.5573 23.8374 14.7497 24.3667 16.0106 24.43C17.2715 24.4934 18.511 24.0861 19.4887 23.2874C20.4664 22.4886 21.1125 21.3552 21.3019 20.1069C21.4912 18.8587 21.2102 17.5847 20.5134 16.5319L22.0774 14.9678L20.6414 13.5317ZM19.3282 19.3279C19.3282 19.9305 19.1495 20.5196 18.8147 21.0207C18.4799 21.5217 18.004 21.9122 17.4473 22.1429C16.8905 22.3735 16.2779 22.4338 15.6869 22.3162C15.0958 22.1987 14.5529 21.9085 14.1268 21.4824C13.7007 21.0563 13.4105 20.5134 13.2929 19.9223C13.1754 19.3313 13.2357 18.7187 13.4663 18.1619C13.6969 17.6052 14.0875 17.1293 14.5885 16.7945C15.0896 16.4597 15.6787 16.281 16.2813 16.281C16.7337 16.2828 17.1799 16.387 17.5864 16.5857L14.5476 19.6245L15.9837 21.0606L19.0235 18.0228C19.2222 18.4293 19.3264 18.8755 19.3282 19.3279Z" fill="#217CA7"/>
<path d="M23.3906 16.2812H27.4531V18.3125H23.3906V16.2812Z" fill="#217CA7"/>
<path d="M23.3906 20.3438H27.4531V22.375H23.3906V20.3438Z" fill="#217CA7"/>
</svg>
