<svg width="65" height="65" viewBox="0 0 65 65" fill="none" xmlns="http://www.w3.org/2000/svg">
<g clip-path="url(#clip0)">
<path d="M50.9167 58.4999C50.9167 55.0809 44.9323 53.132 39 52.3888V45.1305L42.4461 47.7998C43.2103 48.4676 44.2077 48.806 45.2205 48.7413C46.2115 48.6794 47.1368 48.2247 47.7913 47.4781C48.4608 46.7202 48.8009 45.7269 48.7367 44.7177C48.6725 43.7084 48.2091 42.7663 47.4489 42.0993L39.3337 35.3393C38.6187 34.749 37.8013 34.2951 36.9222 34.0003C38.8831 32.1804 39.5286 29.3448 38.5488 26.8554C37.5689 24.366 35.1638 22.7312 32.4885 22.7361C29.8131 22.741 27.4141 24.3847 26.4434 26.8777C25.4727 29.3707 26.1286 32.2039 28.0963 34.0166C27.1856 34.3343 26.3439 34.8229 25.6165 35.4563L17.5229 42.5251C15.98 43.9175 15.8455 46.2926 17.2215 47.8502C18.5974 49.4079 20.9709 49.5676 22.5431 48.2083L26 45.267V52.3888C20.0677 53.132 14.0833 55.0809 14.0833 58.4999C14.0833 62.7672 23.348 64.9999 32.5 64.9999C41.652 64.9999 50.9167 62.7672 50.9167 58.4999ZM33.5833 58.4804V55.2499C33.5833 54.6516 33.0983 54.1666 32.5 54.1666C31.9017 54.1666 31.4167 54.6516 31.4167 55.2499V58.4815C30.3095 58.4598 29.224 58.4068 28.1667 58.319V51.9999H36.8333V58.3201C35.776 58.4068 34.6905 58.4588 33.5833 58.4804ZM32.5 24.9166C34.8932 24.9166 36.8333 26.8567 36.8333 29.2499C36.8333 31.6432 34.8932 33.5833 32.5 33.5833C30.1068 33.5833 28.1667 31.6432 28.1667 29.2499C28.1667 26.8567 30.1068 24.9166 32.5 24.9166ZM21.125 46.5768C20.4546 47.1751 19.4261 47.1166 18.8278 46.4462C18.2295 45.7758 18.2879 44.7473 18.9583 44.149L27.0433 37.0868C28.0299 36.2251 29.2953 35.7502 30.6053 35.7499H34.4803C35.7469 35.7507 36.9733 36.1945 37.947 37.0044L46.0341 43.7406C46.7071 44.3395 46.7673 45.3706 46.1684 46.0438C45.8902 46.3628 45.4957 46.5571 45.0732 46.5833C44.612 46.613 44.1591 46.4498 43.823 46.1326L38.5797 42.0701C38.2536 41.8177 37.8125 41.7724 37.4419 41.9531C37.0712 42.1338 36.8353 42.5093 36.8333 42.9216V49.8333H28.1667V42.9227C28.1672 42.4998 27.9216 42.1153 27.5378 41.938C27.1539 41.7606 26.702 41.8227 26.3803 42.0972L21.125 46.5768ZM32.5 62.8333C22.5799 62.8333 16.25 60.2668 16.25 58.4999C16.25 57.3808 19.3603 55.4352 26 54.5728V58.0883C25.7151 58.0514 25.4258 58.02 25.1463 57.9799C24.7636 57.9219 24.3789 58.0724 24.1372 58.3749C23.8956 58.6774 23.8336 59.0858 23.9747 59.4463C24.1158 59.8069 24.4386 60.0647 24.8213 60.1228C27.3639 60.4941 29.9305 60.6758 32.5 60.6666C35.1384 60.6759 37.7735 60.4828 40.3823 60.0892C40.7649 60.0298 41.0868 59.7708 41.2266 59.4097C41.3664 59.0487 41.3031 58.6405 41.0603 58.3389C40.8176 58.0372 40.4323 57.888 40.0498 57.9474C39.7063 58.0016 39.351 58.0428 39 58.0883V54.5728C45.6398 55.4395 48.75 57.3808 48.75 58.4999C48.75 60.2668 42.4201 62.8333 32.5 62.8333Z" fill="#217CA7"/>
<path d="M29.7917 18.4167C30.8123 18.4164 31.7893 18.0029 32.5 17.2705C33.5745 18.3749 35.211 18.7179 36.6386 18.1381C38.0661 17.5583 38.9999 16.1712 39 14.6304V12.6111C44.9323 11.8679 50.9167 9.919 50.9167 6.5C50.9167 2.23275 41.652 0 32.5 0C23.348 0 14.0833 2.23275 14.0833 6.5C14.0833 9.919 20.0677 11.8679 26 12.6111V14.625C26 16.7191 27.6976 18.4167 29.7917 18.4167ZM29.7917 16.25C28.8942 16.25 28.1667 15.5225 28.1667 14.625V6.68092C29.224 6.59317 30.3095 6.54008 31.4167 6.51842V14.625C31.4167 15.5225 30.6891 16.25 29.7917 16.25ZM35.2083 16.25C34.3109 16.25 33.5833 15.5225 33.5833 14.625V6.5195C34.6905 6.54117 35.776 6.59317 36.8333 6.67983V14.625C36.8333 15.5225 36.1058 16.25 35.2083 16.25ZM16.25 6.5C16.25 4.73308 22.5799 2.16667 32.5 2.16667C42.4201 2.16667 48.75 4.73308 48.75 6.5C48.75 7.61908 45.6398 9.56475 39 10.4271V6.91167C39.351 6.95717 39.7063 6.99833 40.0498 7.0525C40.1053 7.06074 40.1615 7.06472 40.2177 7.06442C40.7829 7.06304 41.2521 6.62729 41.2952 6.06368C41.3383 5.50006 40.9408 4.99805 40.3823 4.91075C37.7735 4.51711 35.1384 4.32407 32.5 4.33333C29.9313 4.32348 27.3654 4.50453 24.8235 4.875C24.4407 4.93306 24.118 5.19091 23.9769 5.55144C23.8358 5.91196 23.8977 6.32038 24.1394 6.62285C24.3811 6.92532 24.7657 7.07589 25.1485 7.01783C25.428 6.97558 25.7173 6.94417 26.0022 6.9095V10.4271C19.3603 9.56475 16.25 7.61908 16.25 6.5Z" fill="#217CA7"/>
<path d="M14.4744 62.9059C12.3197 62.075 9.75001 60.6309 9.75001 58.5C9.75001 56.7862 11.3393 55.3031 14.4733 54.0897C15.0316 53.874 15.3092 53.2467 15.0936 52.6884C14.8779 52.1302 14.2505 51.8525 13.6923 52.0682C9.64168 53.6423 7.58334 55.8057 7.58334 58.5C7.58334 61.1942 9.64168 63.3522 13.6923 64.9231C14.2505 65.1391 14.8781 64.8616 15.0941 64.3034C15.3101 63.7452 15.0326 63.1176 14.4744 62.9016V62.9059Z" fill="#217CA7"/>
<path d="M51.3089 52.0725C50.9478 51.9326 50.5394 51.9959 50.2377 52.2387C49.936 52.4815 49.7867 52.8668 49.8461 53.2495C49.9055 53.6321 50.1645 53.9541 50.5256 54.094C53.6608 55.3084 55.25 56.7915 55.25 58.4999C55.25 60.6265 52.6804 62.0673 50.5256 62.9015C49.9674 63.1175 49.69 63.7451 49.906 64.3033C50.1219 64.8615 50.7496 65.139 51.3078 64.923C55.3584 63.3565 57.4167 61.1963 57.4167 58.4999C57.4167 55.8035 55.3584 53.6433 51.3089 52.0725Z" fill="#217CA7"/>
<path d="M7.58334 6.50002C7.58334 9.19211 9.64168 11.3523 13.6923 12.9231C14.2505 13.1391 14.8781 12.8617 15.0941 12.3034C15.3101 11.7452 15.0326 11.1176 14.4744 10.9016C12.3197 10.075 9.75001 8.63094 9.75001 6.50002C9.75001 4.78619 11.3393 3.30311 14.4733 2.08977C14.9961 1.85211 15.2425 1.24787 15.0352 0.712405C14.8279 0.176935 14.2387 -0.103736 13.6923 0.0726056C9.64168 1.64236 7.58334 3.80577 7.58334 6.50002H7.58334Z" fill="#217CA7"/>
<path d="M51.3089 0.072498C50.9478 -0.0674162 50.5394 -0.00405435 50.2377 0.238716C49.936 0.481486 49.7867 0.866782 49.8461 1.24947C49.9055 1.63215 50.1645 1.95408 50.5256 2.094C53.6608 3.30842 55.25 4.7915 55.25 6.49992C55.25 8.6265 52.6804 10.0673 50.5256 10.9015C49.9674 11.1175 49.69 11.7451 49.906 12.3033C50.1219 12.8616 50.7496 13.139 51.3078 12.923C55.3584 11.3565 57.4167 9.19633 57.4167 6.49992C57.4167 3.8035 55.3584 1.64333 51.3089 0.072498Z" fill="#217CA7"/>
</g>
<defs>
<clipPath id="clip0">
<rect width="65" height="65" fill="white"/>
</clipPath>
</defs>
</svg>
