<svg width="65" height="65" viewBox="0 0 65 65" fill="none" xmlns="http://www.w3.org/2000/svg">
<g clip-path="url(#clip0)">
<path d="M62.1046 4.44336H2.89511C1.29878 4.44336 0 5.74214 0 7.33847V21.7387C0 22.2648 0.426481 22.6908 0.952145 22.6908C1.47781 22.6908 1.90429 22.2648 1.90429 21.7387V7.33847C1.90429 6.79198 2.34862 6.34765 2.89511 6.34765H13.0543V11.0186H12.7905C11.1902 11.0186 9.88842 12.3204 9.88842 13.9202V20.2004C9.88842 21.8007 11.1902 23.1024 12.7905 23.1024H14.0258V40.8326H1.90429V25.8855C1.90429 25.3593 1.47781 24.9333 0.952145 24.9333C0.426481 24.9333 0 25.3593 0 25.8855V48.2262C0 49.4654 1.00818 50.4736 2.24746 50.4736H14.6541C15.4411 51.8017 16.8882 52.6948 18.541 52.6948C20.1939 52.6948 21.641 51.8017 22.428 50.4736H24.1889V52.2857C24.1889 53.1446 24.726 53.879 25.4808 54.1756C25.0394 55.2423 24.5128 56.1671 23.9078 56.9313C23.3727 57.6063 23.274 58.5103 23.6509 59.2894C24.0322 60.0774 24.8113 60.5668 25.6841 60.5668H39.3156C40.1889 60.5668 40.968 60.0774 41.3489 59.2894C41.7258 58.5098 41.6276 57.6063 41.0925 56.9308C39.5919 55.0375 38.8316 52.5232 38.4453 50.4736H51.0037C51.5299 50.4736 51.9559 50.0471 51.9559 49.5215C51.9559 48.9953 51.5299 48.5693 51.0037 48.5693H31.5988V42.7374H63.0955V48.2262C63.0955 48.4151 62.9417 48.5693 62.7523 48.5693H55.15C54.6243 48.5693 54.1979 48.9953 54.1979 49.5215C54.1979 50.0471 54.6243 50.4736 55.15 50.4736H62.7523C63.9921 50.4736 65.0002 49.4654 65.0002 48.2262V7.33847C64.9997 5.74214 63.701 4.44336 62.1046 4.44336ZM14.9586 6.34765H40.1498V11.0186H14.9586V6.34765ZM11.7927 20.2004V13.9207C11.7927 13.3702 12.24 12.9229 12.7905 12.9229H43.3013C43.8512 12.9229 44.2985 13.3702 44.2985 13.9207V20.2004C44.2985 20.7508 43.8512 21.1981 43.3013 21.1981H29.8239C29.2978 21.1981 28.8718 21.6246 28.8718 22.1503C28.8718 22.6764 29.2978 23.1024 29.8239 23.1024H32.487V28.1096H30.4627C28.605 28.1096 27.094 29.6206 27.094 31.4783V36.845H26.2207C25.1004 36.845 24.1894 37.7565 24.1894 38.8768V40.8326H23.0563V23.1024H25.6777C26.2033 23.1024 26.6298 22.6764 26.6298 22.1503C26.6298 21.6246 26.2033 21.1981 25.6777 21.1981H12.7905C12.24 21.1981 11.7927 20.7508 11.7927 20.2004ZM47.5056 15.22V18.9016H46.2033V15.22H47.5056ZM46.1393 20.8059H47.6043C48.6 20.8059 49.4104 19.9956 49.4104 18.9998V18.0129H49.8884C50.6962 18.0129 51.3533 18.67 51.3533 19.4778V26.6447C51.3533 27.4525 50.6962 28.1096 49.8884 28.1096H41.5175V23.1029H43.3013C44.6938 23.1024 45.8601 22.1166 46.1393 20.8059ZM34.3913 30.0139H39.6127V31.5299C39.6127 32.9695 38.4414 34.1404 37.0022 34.1404C35.5626 34.1404 34.3913 32.969 34.3913 31.5299V30.0139ZM34.3913 28.1096V23.1029H39.6127V28.1096H34.3913ZM26.2207 52.4131C26.1503 52.4131 26.0937 52.3561 26.0937 52.2857V50.9135H27.1728C27.6985 50.9135 28.125 50.4875 28.125 49.9613C28.125 49.4357 27.6985 49.0092 27.1728 49.0092H26.0937V47.9936H27.1728C27.6985 47.9936 28.125 47.5671 28.125 47.0414C28.125 46.5153 27.6985 46.0893 27.1728 46.0893H26.0937V45.0732H27.1728C27.6985 45.0732 28.125 44.6472 28.125 44.121C28.125 43.5954 27.6985 43.1689 27.1728 43.1689H26.0937V42.1533H27.1728C27.6985 42.1533 28.125 41.7273 28.125 41.2011C28.125 40.6749 27.6985 40.249 27.1728 40.249H26.0937V38.8768C26.0937 38.8069 26.1508 38.7493 26.2207 38.7493H29.5671C29.637 38.7493 29.694 38.8069 29.694 38.8768V52.2857C29.694 52.3556 29.637 52.4131 29.5671 52.4131H26.2207ZM2.24746 48.5693C2.05852 48.5693 1.90429 48.4151 1.90429 48.2262V42.7374H14.0258V48.18C14.0258 48.3115 14.0327 48.4409 14.0436 48.5693H2.24746ZM18.541 50.7905C17.1014 50.7905 15.9301 49.6197 15.9301 48.18V23.1029H21.1515V48.18C21.1515 49.6197 19.9807 50.7905 18.541 50.7905ZM23.0379 48.5693C23.0493 48.4409 23.0558 48.3115 23.0558 48.18V42.7374H24.1889V48.5693H23.0379ZM36.5103 50.4736C36.9164 52.8079 37.7763 55.8121 39.5998 58.1136C39.7034 58.245 39.6762 58.3749 39.6345 58.4602C39.6053 58.5212 39.515 58.6626 39.3156 58.6626H25.6841C25.4847 58.6626 25.3945 58.5212 25.3652 58.4602C25.3236 58.3744 25.2963 58.245 25.3999 58.1136C26.2261 57.0712 26.9204 55.7947 27.4699 54.3174H29.5671C30.6873 54.3174 31.5983 53.4059 31.5983 52.2857V50.4736H36.5103ZM31.5983 40.8326V38.8773C31.5983 37.757 30.6873 36.8455 29.5671 36.8455H28.9983V31.4788C28.9983 30.671 29.6548 30.0139 30.4627 30.0139H32.487V31.5299C32.487 34.0194 34.5128 36.0447 37.0022 36.0447C39.4917 36.0447 41.517 34.0194 41.517 31.5299V30.0139H49.8884C51.7461 30.0139 53.2571 28.5029 53.2571 26.6452V19.4778C53.2571 17.6202 51.7461 16.1086 49.8884 16.1086H49.4099V15.1218C49.4099 14.126 48.5995 13.3157 47.6038 13.3157H46.1388C45.8596 12.005 44.6938 11.0186 43.3008 11.0186H42.054V6.34765H62.1041C62.6506 6.34765 63.0955 6.79248 63.0955 7.33847V40.8326H31.5983Z" fill="#217CA7"/>
<path d="M42.8932 15.0298C42.8932 14.5036 42.4672 14.0776 41.9411 14.0776H14.0957C13.5695 14.0776 13.1436 14.5036 13.1436 15.0298C13.1436 15.5555 13.5695 15.9819 14.0957 15.9819H41.9411C42.4668 15.9819 42.8932 15.5555 42.8932 15.0298Z" fill="#217CA7"/>
<path d="M52.305 33.0493H45.2512C44.725 33.0493 44.299 33.4753 44.299 34.0015C44.299 34.5271 44.725 34.9536 45.2512 34.9536H52.305C52.8312 34.9536 53.2571 34.5271 53.2571 34.0015C53.2571 33.4753 52.8312 33.0493 52.305 33.0493Z" fill="#217CA7"/>
<path d="M52.305 35.9692H48.7781C48.2519 35.9692 47.8259 36.3952 47.8259 36.9214C47.8259 37.4475 48.2519 37.8735 48.7781 37.8735H52.305C52.8312 37.8735 53.2571 37.4475 53.2571 36.9214C53.2571 36.3952 52.8312 35.9692 52.305 35.9692Z" fill="#217CA7"/>
<path d="M52.305 8.67407H48.7781C48.2519 8.67407 47.8259 9.10006 47.8259 9.62622C47.8259 10.1524 48.2519 10.5784 48.7781 10.5784H52.305C52.8312 10.5784 53.2571 10.1524 53.2571 9.62622C53.2571 9.10006 52.8312 8.67407 52.305 8.67407Z" fill="#217CA7"/>
</g>
<defs>
<clipPath id="clip0">
<rect width="65" height="65" fill="white"/>
</clipPath>
</defs>
</svg>
