<svg width="65" height="65" viewBox="0 0 65 65" fill="none" xmlns="http://www.w3.org/2000/svg">
<path d="M56.875 2.03125H8.125C7.3172 2.03217 6.54275 2.35348 5.97155 2.92468C5.40035 3.49588 5.07905 4.27033 5.07812 5.07812V59.9219C5.07905 60.7297 5.40035 61.5041 5.97155 62.0753C6.54275 62.6465 7.3172 62.9678 8.125 62.9688H56.875C57.6828 62.9678 58.4572 62.6465 59.0284 62.0753C59.5996 61.5041 59.921 60.7297 59.9219 59.9219V5.07812C59.921 4.27033 59.5996 3.49588 59.0284 2.92468C58.4572 2.35348 57.6828 2.03217 56.875 2.03125ZM8.125 4.0625H56.875C57.1443 4.06281 57.4024 4.16991 57.5928 4.36031C57.7832 4.55071 57.8903 4.80886 57.8906 5.07812V8.125H7.10938V5.07812C7.10968 4.80886 7.21678 4.55071 7.40718 4.36031C7.59758 4.16991 7.85573 4.06281 8.125 4.0625ZM56.875 60.9375H8.125C7.85573 60.9372 7.59758 60.8301 7.40718 60.6397C7.21678 60.4493 7.10968 60.1911 7.10938 59.9219V10.1562H57.8906V59.9219C57.8903 60.1911 57.7832 60.4493 57.5928 60.6397C57.4024 60.8301 57.1443 60.9372 56.875 60.9375Z" fill="#217CA7"/>
<path d="M10.1562 7.10938C10.7172 7.10938 11.1719 6.65466 11.1719 6.09375C11.1719 5.53284 10.7172 5.07812 10.1562 5.07812C9.59534 5.07812 9.14062 5.53284 9.14062 6.09375C9.14062 6.65466 9.59534 7.10938 10.1562 7.10938Z" fill="#217CA7"/>
<path d="M13.2031 7.10938C13.764 7.10938 14.2188 6.65466 14.2188 6.09375C14.2188 5.53284 13.764 5.07812 13.2031 5.07812C12.6422 5.07812 12.1875 5.53284 12.1875 6.09375C12.1875 6.65466 12.6422 7.10938 13.2031 7.10938Z" fill="#217CA7"/>
<path d="M16.25 7.10938C16.8109 7.10938 17.2656 6.65466 17.2656 6.09375C17.2656 5.53284 16.8109 5.07812 16.25 5.07812C15.6891 5.07812 15.2344 5.53284 15.2344 6.09375C15.2344 6.65466 15.6891 7.10938 16.25 7.10938Z" fill="#217CA7"/>
<path d="M32.5 28.4375C34.107 28.4375 35.6779 27.961 37.014 27.0682C38.3502 26.1754 39.3916 24.9065 40.0065 23.4218C40.6215 21.9372 40.7824 20.3035 40.4689 18.7274C40.1554 17.1513 39.3815 15.7036 38.2452 14.5673C37.1089 13.431 35.6612 12.6571 34.0851 12.3436C32.509 12.0301 30.8753 12.191 29.3907 12.806C27.906 13.4209 26.6371 14.4623 25.7443 15.7985C24.8515 17.1346 24.375 18.7055 24.375 20.3125C24.3774 22.4666 25.2342 24.5319 26.7574 26.0551C28.2806 27.5783 30.3459 28.4351 32.5 28.4375ZM29.4531 25.5865V24.518C29.4526 24.0162 29.5762 23.5222 29.8129 23.0799C30.0496 22.6375 30.3921 22.2606 30.8099 21.9827L30.9265 21.905C31.4011 22.192 31.9453 22.3438 32.5 22.3438C33.0547 22.3438 33.5988 22.192 34.0735 21.905L34.1901 21.9827C34.6078 22.2606 34.9503 22.6375 35.1871 23.0798C35.4238 23.5222 35.5474 24.0162 35.5469 24.518V25.5865C34.6212 26.1234 33.5701 26.4063 32.5 26.4063C31.4299 26.4063 30.3788 26.1234 29.4531 25.5865V25.5865ZM33.5156 19.2969C33.5156 19.5662 33.4086 19.8246 33.2182 20.015C33.0277 20.2055 32.7694 20.3125 32.5 20.3125C32.2306 20.3125 31.9723 20.2055 31.7818 20.015C31.5914 19.8246 31.4844 19.5662 31.4844 19.2969V18.2813C31.4844 18.0119 31.5914 17.7536 31.7818 17.5631C31.9723 17.3726 32.2306 17.2656 32.5 17.2656C32.7694 17.2656 33.0277 17.3726 33.2182 17.5631C33.4086 17.7536 33.5156 18.0119 33.5156 18.2813V19.2969ZM32.5 14.2188C33.6103 14.218 34.6998 14.5209 35.6504 15.0945C36.6011 15.6682 37.3768 16.4909 37.8937 17.4736C38.4106 18.4563 38.6489 19.5616 38.583 20.67C38.5171 21.7784 38.1494 22.8477 37.5196 23.7622C37.4166 23.0724 37.1722 22.4114 36.8018 21.8205C36.4313 21.2296 35.9428 20.7215 35.3668 20.3283C35.4862 19.9975 35.5471 19.6485 35.5469 19.2969V18.2813C35.5469 17.4732 35.2259 16.6982 34.6545 16.1268C34.0831 15.5554 33.3081 15.2344 32.5 15.2344C31.6919 15.2344 30.9169 15.5554 30.3455 16.1268C29.7741 16.6982 29.4531 17.4732 29.4531 18.2813V19.2969C29.4529 19.6485 29.5138 19.9975 29.6332 20.3282C29.0572 20.7215 28.5687 21.2295 28.1982 21.8204C27.8278 22.4113 27.5834 23.0724 27.4804 23.7622C26.8506 22.8477 26.4829 21.7784 26.417 20.67C26.3511 19.5616 26.5894 18.4563 27.1063 17.4736C27.6232 16.4909 28.3989 15.6682 29.3496 15.0945C30.3002 14.5209 31.3897 14.218 32.5 14.2188Z" fill="#217CA7"/>
<path d="M25.3906 30.4688H28.4375V32.5H25.3906V30.4688Z" fill="#217CA7"/>
<path d="M30.4688 30.4688H39.6094V32.5H30.4688V30.4688Z" fill="#217CA7"/>
<path d="M20.3125 45.7031H22.3438V47.7344H20.3125V45.7031Z" fill="#217CA7"/>
<path d="M24.375 45.7031H30.4688V47.7344H24.375V45.7031Z" fill="#217CA7"/>
<path d="M20.3125 41.6406H22.3438V43.6719H20.3125V41.6406Z" fill="#217CA7"/>
<path d="M24.375 41.6406H28.4375V43.6719H24.375V41.6406Z" fill="#217CA7"/>
<path d="M25.3906 34.5312H31.4844V36.5625H25.3906V34.5312Z" fill="#217CA7"/>
<path d="M33.5156 34.5312H39.6094V36.5625H33.5156V34.5312Z" fill="#217CA7"/>
<path d="M20.3125 55.8594H22.3438V57.8906H20.3125V55.8594Z" fill="#217CA7"/>
<path d="M24.375 55.8594H30.4688V57.8906H24.375V55.8594Z" fill="#217CA7"/>
<path d="M20.3125 51.7969H22.3438V53.8281H20.3125V51.7969Z" fill="#217CA7"/>
<path d="M24.375 51.7969H28.4375V53.8281H24.375V51.7969Z" fill="#217CA7"/>
<path d="M44.6875 45.7031H46.7188V47.7344H44.6875V45.7031Z" fill="#217CA7"/>
<path d="M48.75 45.7031H54.8438V47.7344H48.75V45.7031Z" fill="#217CA7"/>
<path d="M44.6875 41.6406H46.7188V43.6719H44.6875V41.6406Z" fill="#217CA7"/>
<path d="M48.75 41.6406H52.8125V43.6719H48.75V41.6406Z" fill="#217CA7"/>
<path d="M44.6875 55.8594H46.7188V57.8906H44.6875V55.8594Z" fill="#217CA7"/>
<path d="M48.75 55.8594H54.8438V57.8906H48.75V55.8594Z" fill="#217CA7"/>
<path d="M44.6875 51.7969H46.7188V53.8281H44.6875V51.7969Z" fill="#217CA7"/>
<path d="M48.75 51.7969H52.8125V53.8281H48.75V51.7969Z" fill="#217CA7"/>
<path d="M16.8449 40.6249H11.1719C10.9025 40.6249 10.6442 40.7319 10.4537 40.9224C10.2633 41.1129 10.1563 41.3712 10.1562 41.6406V47.7343C10.1563 48.0037 10.2633 48.262 10.4537 48.4525C10.6442 48.6429 10.9025 48.7499 11.1719 48.7499H17.2656C17.535 48.7499 17.7933 48.6429 17.9838 48.4525C18.1742 48.262 18.2812 48.0037 18.2812 47.7343V42.0613L20.015 40.3275L18.5787 38.8911L16.8449 40.6249ZM16.25 46.7187H12.1875V42.6562H14.8137L13.5006 43.9692L14.9369 45.4056L16.25 44.0925V46.7187Z" fill="#217CA7"/>
<path d="M18.5787 49.0474L16.8449 50.7812H11.1719C10.9025 50.7812 10.6442 50.8882 10.4537 51.0787C10.2633 51.2691 10.1563 51.5275 10.1562 51.7968V57.8906C10.1563 58.1599 10.2633 58.4183 10.4537 58.6087C10.6442 58.7992 10.9025 58.9062 11.1719 58.9062H17.2656C17.535 58.9062 17.7933 58.7992 17.9838 58.6087C18.1742 58.4183 18.2812 58.1599 18.2812 57.8906V52.2175L20.015 50.4838L18.5787 49.0474ZM16.25 56.8749H12.1875V52.8124H14.8137L13.5006 54.1255L14.9369 55.5619L16.25 54.2488V56.8749Z" fill="#217CA7"/>
<path d="M41.2199 40.6249H35.5469C35.2775 40.6249 35.0192 40.7319 34.8287 40.9224C34.6383 41.1129 34.5313 41.3712 34.5312 41.6406V47.7343C34.5313 48.0037 34.6383 48.262 34.8287 48.4525C35.0192 48.6429 35.2775 48.7499 35.5469 48.7499H41.6406C41.91 48.7499 42.1683 48.6429 42.3588 48.4525C42.5492 48.262 42.6562 48.0037 42.6562 47.7343V42.0613L44.39 40.3275L42.9537 38.8911L41.2199 40.6249ZM40.625 46.7187H36.5625V42.6562H39.1887L37.8756 43.9692L39.3119 45.4056L40.625 44.0925V46.7187Z" fill="#217CA7"/>
<path d="M42.9537 49.0474L41.2199 50.7812H35.5469C35.2775 50.7812 35.0192 50.8882 34.8287 51.0787C34.6383 51.2691 34.5313 51.5275 34.5312 51.7968V57.8906C34.5313 58.1599 34.6383 58.4183 34.8287 58.6087C35.0192 58.7992 35.2775 58.9062 35.5469 58.9062H41.6406C41.91 58.9062 42.1683 58.7992 42.3588 58.6087C42.5492 58.4183 42.6562 58.1599 42.6562 57.8906V52.2175L44.39 50.4838L42.9537 49.0474ZM40.625 56.8749H36.5625V52.8124H39.1887L37.8756 54.1255L39.3119 55.5619L40.625 54.2488V56.8749Z" fill="#217CA7"/>
</svg>
