<svg width="65" height="65" viewBox="0 0 65 65" fill="none" xmlns="http://www.w3.org/2000/svg">
<g clip-path="url(#clip0)">
<path d="M10.9147 28.9198C10.3858 28.9198 9.95709 29.3485 9.95709 29.8774V31.6071C9.95709 38.7494 13.193 45.3572 18.8352 49.7362L27.881 56.7567C28.2151 57.016 28.6155 57.1457 29.0161 57.1457C29.4166 57.1457 29.817 57.016 30.1513 56.7567L37.2265 51.2653C37.6443 50.941 37.7201 50.3395 37.3959 49.9217C37.0716 49.504 36.4701 49.4281 36.0522 49.7523L29.0161 55.2133L20.0095 48.2231C14.8382 44.2095 11.8723 38.1534 11.8723 31.6071V29.8774C11.8723 29.3485 11.4436 28.9198 10.9147 28.9198Z" fill="white"/>
<path d="M29.0161 58.4451C28.291 58.4451 27.7032 59.0329 27.7032 59.758C27.7032 60.483 28.291 61.0708 29.0161 61.0708C29.7411 61.0708 30.3289 60.483 30.3289 59.758C30.3289 59.0328 29.7411 58.4451 29.0161 58.4451Z" fill="white"/>
<path d="M29.0161 5.16473C28.291 5.16473 27.7032 5.75253 27.7032 6.47756C27.7032 7.20259 28.291 7.79038 29.0161 7.79038C29.7411 7.79038 30.3289 7.20259 30.3289 6.47756C30.3289 5.7524 29.7411 5.16473 29.0161 5.16473Z" fill="white"/>
<path d="M48.7784 14.2119C48.7784 14.9369 49.3662 15.5247 50.0912 15.5247C50.8163 15.5247 51.4041 14.9369 51.4041 14.2119C51.4041 13.4869 50.8163 12.8991 50.0912 12.8991C49.3662 12.8991 48.7784 13.4869 48.7784 14.2119Z" fill="white"/>
<path d="M6.47145 14.2119C6.47145 14.9369 7.05924 15.5247 7.78427 15.5247C8.5093 15.5247 9.09709 14.9369 9.09709 14.2119C9.09709 13.4869 8.5093 12.8991 7.78427 12.8991C7.05924 12.8991 6.47145 13.4869 6.47145 14.2119Z" fill="white"/>
<path d="M60.5514 58.7213V35.4923C61.6719 34.9657 62.45 33.8265 62.45 32.5086C62.45 30.6918 60.9719 29.2137 59.155 29.2137H48.075V17.5855C48.075 16.6429 47.3697 15.8524 46.4344 15.7468C42.7836 15.3348 39.383 14.5604 36.3269 13.4448C34.2766 12.6967 32.4217 11.8036 30.8136 10.7901C29.7216 10.1018 28.3106 10.1019 27.2185 10.7903C25.6103 11.8037 23.7554 12.6968 21.7052 13.4448C18.649 14.5603 15.2485 15.3348 11.5977 15.7468C10.6624 15.8524 9.95708 16.6429 9.95708 17.5855V25.3489C9.95708 25.8777 10.3858 26.3065 10.9147 26.3065C11.4436 26.3065 11.8723 25.8777 11.8723 25.3489V17.6432C15.6512 17.2124 19.18 16.4053 22.3617 15.2442C24.539 14.4497 26.5167 13.4963 28.2396 12.4106C28.7186 12.1089 29.3136 12.1085 29.7925 12.4104C31.5152 13.4963 33.4929 14.4496 35.6704 15.2442C38.8521 16.4054 42.381 17.2123 46.1598 17.6432V29.2136H41.0276C39.2106 29.2136 37.7325 30.6917 37.7325 32.5085C37.7325 33.8314 38.5164 34.9739 39.6438 35.4979V56.3407L32.4874 61.8949C31.4987 62.662 30.2659 63.0847 29.016 63.0847C27.748 63.0847 26.5477 62.6733 25.5449 61.895L15.3304 53.9674C11.9671 51.3571 9.1998 47.9563 7.32737 44.1328C5.45494 40.3097 4.46534 36.0384 4.46534 31.7811V10.9093C4.46534 10.6647 4.6644 10.4642 4.90904 10.4625L8.01393 10.4399C18.6256 10.3628 23.7917 6.76952 25.9268 4.63455C26.5771 3.98404 27.1817 3.28834 27.7235 2.56661C28.0344 2.15236 28.5087 1.91509 29.0253 1.91509C29.0267 1.91509 29.028 1.91509 29.0294 1.91521C29.5437 1.91636 30.0145 2.15376 30.3211 2.56623C30.8659 3.29913 31.4662 3.99496 32.1058 4.63455C33.8248 6.35337 39.0111 10.36 50.0187 10.4399L53.1235 10.4625C53.3682 10.4642 53.5672 10.6647 53.5672 10.9093V25.309C53.5672 25.8379 53.996 26.2666 54.5249 26.2666C55.0537 26.2666 55.4825 25.8379 55.4825 25.309V10.9093C55.4825 9.61632 54.4305 8.55677 53.1376 8.54725L50.0327 8.52465C39.7338 8.44987 35.0123 4.83209 33.4603 3.28034C32.8866 2.70651 32.3477 2.0819 31.8584 1.42378C31.1874 0.521523 30.1581 0.00266602 29.0338 0C29.0309 0 29.028 0 29.0251 0C27.9004 0 26.868 0.515938 26.1917 1.41667C25.704 2.06642 25.1591 2.69344 24.5723 3.28021C22.6445 5.208 17.9283 8.45254 7.99984 8.52465L4.89495 8.54725C3.60206 8.55677 2.55013 9.61632 2.55013 10.9093V31.7812C2.55013 36.3289 3.60726 40.8913 5.60728 44.9754C7.60743 49.0596 10.5635 52.6921 14.1561 55.4805L24.3706 63.4081C25.6933 64.4347 27.3431 65 29.016 65C30.6889 65 32.3388 64.4347 33.6618 63.408L38.3797 59.7463C37.9733 60.2942 37.7326 60.9719 37.7326 61.7048C37.7326 63.5218 39.2108 64.9999 41.0277 64.9999H59.1551C60.9719 64.9999 62.4502 63.5218 62.4502 61.7048C62.45 60.387 61.6721 59.2479 60.5514 58.7213ZM41.559 47.6295C42.3672 46.8042 43.1124 45.9193 43.785 44.9856C44.476 45.823 45.2823 46.529 46.1633 47.043C43.913 48.3561 42.1468 50.9181 41.559 53.7379V47.6295ZM41.559 40.3481C41.7733 41.3763 42.1451 42.3696 42.6393 43.2811C42.3016 43.7855 41.9405 44.2754 41.559 44.7498V40.3481ZM43.2637 55.7414C43.2637 52.3307 45.629 48.8577 48.4288 48.1574C48.9404 48.0292 49.2977 47.5707 49.2974 47.0426C49.2973 46.5145 48.9399 46.0562 48.4284 45.9283C45.6289 45.2282 43.2636 41.7551 43.2636 38.3443V35.8037H56.9186V38.3443C56.9186 41.7551 54.5533 45.2282 51.754 45.9283C51.2424 46.0562 50.8849 46.5144 50.8847 47.0426C50.8846 47.5707 51.2417 48.0293 51.7537 48.1575C54.5533 48.8577 56.9186 52.3307 56.9186 55.7414V58.4097H43.2637V55.7414ZM58.6362 53.802C58.0619 50.957 56.2865 48.3658 54.0192 47.043C56.2866 45.72 58.0619 43.129 58.6362 40.284V53.802ZM41.0276 31.1288H59.155C59.9158 31.1288 60.5348 31.7477 60.5348 32.5086C60.5348 33.2695 59.9158 33.8886 59.155 33.8886H41.0276C40.2666 33.8886 39.6476 33.2696 39.6476 32.5086C39.6477 31.7478 40.2668 31.1288 41.0276 31.1288ZM59.155 63.0848H41.0276C40.2666 63.0848 39.6476 62.4658 39.6476 61.7048C39.6476 60.944 40.2666 60.3248 41.0276 60.3248H59.155C59.9158 60.3248 60.5348 60.9438 60.5348 61.7048C60.5348 62.4658 59.9158 63.0848 59.155 63.0848Z" fill="white"/>
<path d="M24.6286 40.5098H24.6418C25.5276 40.5098 26.3501 40.1108 26.8982 39.4151L39.0032 24.0538C39.4782 23.451 39.69 22.6994 39.5997 21.9375C39.5093 21.1754 39.1277 20.4941 38.5249 20.0193C37.9221 19.5444 37.1706 19.3326 36.4087 19.4228C35.6466 19.513 34.9654 19.8948 34.4906 20.4976L24.6743 32.9543L20.2104 27.1254C19.2476 25.8679 17.4409 25.628 16.1828 26.5912C15.5736 27.0577 15.1826 27.7336 15.0816 28.4943C14.9807 29.2551 15.1821 30.0095 15.6486 30.6188L22.361 39.3836C22.9044 40.093 23.7284 40.5036 24.6286 40.5098ZM16.9802 28.7461C17.0139 28.4926 17.1442 28.2674 17.3471 28.112C17.5207 27.9792 17.7253 27.9149 17.9286 27.9149C18.2166 27.9149 18.5016 28.044 18.6898 28.2898L23.9032 35.0974C24.083 35.332 24.3611 35.4707 24.6569 35.4727C24.9479 35.4709 25.2328 35.34 25.4156 35.1077L35.9949 21.6827C36.1531 21.4818 36.38 21.3546 36.6341 21.3244C36.8885 21.2948 37.1387 21.365 37.3397 21.5233C37.5405 21.6817 37.6677 21.9088 37.6978 22.1627C37.7279 22.4166 37.6573 22.6672 37.499 22.8682L25.394 38.2296C25.2113 38.4614 24.9373 38.5945 24.642 38.5945H24.6354C24.3374 38.5925 24.0627 38.4556 23.8816 38.2191L17.1692 29.4541C17.0136 29.2512 16.9464 28.9998 16.9802 28.7461Z" fill="white"/>
</g>
<defs>
<clipPath id="clip0">
<rect width="65" height="65" fill="white"/>
</clipPath>
</defs>
</svg>
