<svg width="65" height="65" viewBox="0 0 65 65" fill="none" xmlns="http://www.w3.org/2000/svg">
<g clip-path="url(#clip0)">
<path d="M45.3217 19.968C45.0861 19.9681 44.8601 20.0618 44.6936 20.2285L29.2164 35.7056L20.3094 26.798C20.1397 26.6375 19.9149 26.548 19.6812 26.548C19.4476 26.548 19.2228 26.6375 19.0531 26.798L15.4623 30.3893C15.2958 30.5559 15.2023 30.7819 15.2023 31.0174C15.2023 31.253 15.2958 31.479 15.4623 31.6456L28.5898 44.7721C28.6722 44.8546 28.7702 44.9201 28.8779 44.9648C28.9857 45.0095 29.1013 45.0325 29.218 45.0325C29.3346 45.0325 29.4502 45.0095 29.558 44.9648C29.6658 44.9201 29.7637 44.8546 29.8461 44.7721L49.5406 25.076C49.7072 24.9093 49.8007 24.6833 49.8007 24.4476C49.8007 24.212 49.7072 23.9859 49.5406 23.8192L45.9499 20.2285C45.7833 20.0618 45.5574 19.9681 45.3217 19.968ZM29.2164 42.8871L17.3473 31.0174L19.6833 28.6815L28.5898 37.5901C28.6722 37.6726 28.7702 37.7381 28.8779 37.7828C28.9857 37.8275 29.1013 37.8505 29.218 37.8505C29.3346 37.8505 29.4502 37.8275 29.558 37.7828C29.6658 37.7381 29.7637 37.6726 29.8461 37.5901L45.3217 22.1135L47.6576 24.4494L29.2164 42.8871Z" fill="white"/>
<path d="M32.5 8.29349C27.7125 8.29349 23.0324 9.71317 19.0517 12.373C15.071 15.0328 11.9684 18.8134 10.1362 23.2365C8.30411 27.6596 7.82475 32.5267 8.75876 37.2223C9.69276 41.9179 11.9982 46.2311 15.3835 49.6164C18.7689 53.0017 23.082 55.3072 27.7776 56.2412C32.4732 57.1752 37.3403 56.6958 41.7634 54.8637C46.1866 53.0316 49.9671 49.929 52.6269 45.9482C55.2868 41.9675 56.7064 37.2875 56.7064 32.4999C56.6992 26.0822 54.1465 19.9294 49.6085 15.3914C45.0705 10.8534 38.9178 8.30075 32.5 8.29349ZM32.5 54.929C28.064 54.929 23.7276 53.6135 20.0391 51.149C16.3507 48.6844 13.4759 45.1815 11.7783 41.0831C10.0807 36.9847 9.63652 32.475 10.5019 28.1242C11.3674 23.7734 13.5035 19.7769 16.6403 16.6402C19.7771 13.5034 23.7735 11.3672 28.1243 10.5018C32.4752 9.63637 36.9849 10.0805 41.0833 11.7781C45.1816 13.4757 48.6846 16.3505 51.1491 20.039C53.6137 23.7274 54.9291 28.0638 54.9291 32.4999C54.9224 38.4464 52.5572 44.1474 48.3524 48.3522C44.1476 52.557 38.4465 54.9222 32.5 54.929Z" fill="white"/>
<path d="M63.9991 35.3504C64.6516 34.5438 65.0076 33.5376 65.0076 32.5001C65.0076 31.4625 64.6516 30.4564 63.9991 29.6497L62.5427 27.8318C62.2635 27.4829 62.0724 27.0719 61.9855 26.6336C61.8987 26.1953 61.9185 25.7425 62.0435 25.3135L62.6935 23.0837C62.9789 22.0867 62.9182 21.0223 62.5211 20.0642C62.124 19.1061 61.414 18.3109 60.5069 17.8081L58.4721 16.6909C58.0801 16.4762 57.7456 16.1703 57.4967 15.7991C57.2479 15.4279 57.0921 15.0022 57.0426 14.5581L56.7887 12.245C56.68 11.2126 56.2202 10.2489 55.4862 9.51486C54.7522 8.78085 53.7885 8.32108 52.7561 8.21244L50.443 7.95853C49.9989 7.90913 49.5732 7.75348 49.202 7.50474C48.8307 7.25601 48.5248 6.92151 48.3102 6.52955L47.193 4.49424C46.698 3.57971 45.9035 2.86328 44.9428 2.46513C43.9821 2.06699 42.9137 2.01137 41.9169 2.3076L39.6876 2.95709C39.2583 3.08182 38.8054 3.10153 38.367 3.01456C37.9285 2.9276 37.5174 2.73651 37.1683 2.4574L35.3503 1.00099C34.5435 0.34874 33.5375 -0.00708008 32.5 -0.00708008C31.4625 -0.00708008 30.4564 0.34874 29.6496 1.00099L27.8317 2.4574C27.4824 2.73592 27.0715 2.92662 26.6333 3.01347C26.1951 3.10033 25.7425 3.08082 25.3134 2.95658L23.0836 2.30658C22.0866 2.02095 21.0221 2.08164 20.064 2.47876C19.1059 2.87589 18.3106 3.58599 17.808 4.49322L16.6908 6.52803C16.4761 6.92 16.1702 7.25453 15.799 7.50334C15.4278 7.75216 15.0021 7.90794 14.558 7.95752L12.2449 8.21142C11.2125 8.32007 10.2488 8.77983 9.51475 9.51385C8.78074 10.2479 8.32098 11.2116 8.21233 12.244L7.95843 14.557C7.90902 15.0012 7.75337 15.4269 7.50463 15.7981C7.2559 16.1694 6.9214 16.4752 6.52944 16.6899L4.49413 17.8071C3.57981 18.3023 2.86355 19.0969 2.46543 20.0575C2.06732 21.0181 2.01155 22.0864 2.30749 23.0832L2.958 25.312C3.08272 25.7412 3.10244 26.1942 3.01547 26.6326C2.92851 27.071 2.73742 27.4821 2.45831 27.8313L1.0019 29.6492C0.349383 30.4559 -0.00660706 31.462 -0.00660706 32.4996C-0.00660706 33.5371 0.349383 34.5433 1.0019 35.3499L2.45831 37.1679C2.73747 37.5168 2.92857 37.9278 3.01545 38.3661C3.10234 38.8044 3.08245 39.2571 2.95749 39.6861L2.30749 41.916C2.02183 42.913 2.0824 43.9774 2.47932 44.9356C2.87624 45.8937 3.58609 46.6892 4.49311 47.1921L6.52792 48.3093C6.91989 48.524 7.25442 48.8298 7.50323 49.2011C7.75205 49.5723 7.90783 49.998 7.95741 50.4421L8.21132 52.7552C8.31996 53.7876 8.77973 54.7513 9.51374 55.4853C10.2477 56.2193 11.2115 56.6791 12.2439 56.7878L14.5569 57.0417C15.0011 57.0911 15.4268 57.2467 15.798 57.4955C16.1693 57.7442 16.4751 58.0787 16.6898 58.4706L17.8069 60.506C18.302 61.4205 19.0965 62.1369 20.0572 62.5351C21.0179 62.9332 22.0863 62.9888 23.0831 62.6926L25.3119 62.0421C25.7412 61.9177 26.194 61.8982 26.6324 61.9852C27.0707 62.0721 27.4818 62.263 27.8312 62.5418L29.6491 63.9982C30.4558 64.6507 31.4619 65.0067 32.4995 65.0067C33.537 65.0067 34.5432 64.6507 35.3498 63.9982L37.1678 62.5418C37.5168 62.2627 37.9277 62.0717 38.366 61.9848C38.8043 61.8979 39.257 61.9178 39.686 62.0426L41.9158 62.6926C42.9126 62.9885 43.9808 62.9327 44.9413 62.5346C45.9019 62.1365 46.6963 61.4202 47.1915 60.506L48.3087 58.4711C48.5234 58.0792 48.8292 57.7446 49.2005 57.4958C49.5717 57.247 49.9974 57.0912 50.4415 57.0417L52.7546 56.7878C53.7869 56.6791 54.7507 56.2193 55.4847 55.4853C56.2187 54.7513 56.6785 53.7876 56.7871 52.7552L57.041 50.4421C57.0904 49.998 57.2461 49.5723 57.4948 49.2011C57.7436 48.8298 58.0781 48.5239 58.47 48.3093L60.5053 47.1921C61.4197 46.6969 62.1359 45.9023 62.534 44.9417C62.9321 43.9811 62.9879 42.9128 62.692 41.916L62.0415 39.6872C61.9167 39.2579 61.897 38.805 61.984 38.3666C62.071 37.9281 62.262 37.517 62.5412 37.1679L63.9991 35.3504ZM61.1553 36.0578C60.6979 36.6298 60.3848 37.3033 60.2423 38.0217C60.0999 38.74 60.1322 39.4821 60.3367 40.1853L60.9878 42.4141C61.1682 43.0224 61.1341 43.6741 60.8911 44.2602C60.6482 44.8463 60.2111 45.331 59.6532 45.6331L57.6174 46.7503C56.9747 47.1026 56.4264 47.6045 56.0189 48.2137C55.6114 48.8228 55.3567 49.5212 55.2764 50.2497L55.0225 52.5628C54.9558 53.1926 54.6751 53.7805 54.2273 54.2284C53.7794 54.6762 53.1915 54.9569 52.5616 55.0236L50.248 55.2775C49.5196 55.3581 48.8214 55.613 48.2124 56.0206C47.6033 56.4281 47.1015 56.9764 46.7492 57.619L45.632 59.6544C45.3297 60.2119 44.845 60.6487 44.2591 60.8917C43.6732 61.1346 43.0217 61.1689 42.4135 60.9889L40.1842 60.3384C39.4811 60.1335 38.7391 60.1009 38.0208 60.2433C37.3024 60.3857 36.629 60.6989 36.0572 61.1565L34.2392 62.6129C33.7469 63.0113 33.1328 63.2287 32.4995 63.2287C31.8662 63.2287 31.252 63.0113 30.7597 62.6129L28.9417 61.1565C28.3698 60.699 27.6963 60.3858 26.9779 60.2433C26.2595 60.1009 25.5174 60.1333 24.8142 60.3379L22.586 60.9884C21.9777 61.1682 21.3261 61.1339 20.7402 60.8909C20.1543 60.648 19.6695 60.2113 19.3669 59.6538L18.2498 57.618C17.8975 56.9753 17.3956 56.427 16.7864 56.0195C16.1773 55.612 15.4789 55.3573 14.7504 55.277L12.4373 55.0231C11.8075 54.9564 11.2196 54.6757 10.7717 54.2279C10.3238 53.78 10.0431 53.1921 9.97647 52.5622L9.72257 50.2486C9.64198 49.5203 9.38711 48.822 8.97953 48.213C8.57195 47.604 8.02365 47.1021 7.38104 46.7498L5.34573 45.6326C4.79234 45.3259 4.35919 44.8407 4.11692 44.2562C3.87466 43.6717 3.83757 43.0224 4.01171 42.4141L4.66222 40.1848C4.86692 39.4817 4.89945 38.7397 4.75706 38.0214C4.61467 37.3031 4.30155 36.6297 3.84413 36.0578L2.38671 34.2399C1.98847 33.7475 1.77121 33.1334 1.77121 32.5001C1.77121 31.8668 1.98847 31.2527 2.38671 30.7603L3.84311 28.9424C4.30051 28.3704 4.61366 27.6969 4.75613 26.9785C4.89859 26.2602 4.86621 25.5181 4.66171 24.8149L4.01171 22.5861C3.83125 21.9778 3.86537 21.3261 4.10834 20.74C4.35131 20.1539 4.78836 19.6692 5.34624 19.3671L7.38206 18.2499C8.02475 17.8976 8.57307 17.3957 8.98058 16.7865C9.38809 16.1774 9.64278 15.479 9.72307 14.7505L9.97698 12.4374C10.0441 11.8073 10.3255 11.2193 10.774 10.7717C11.2226 10.3241 11.8111 10.044 12.4414 9.9781L14.755 9.7242C15.4834 9.64361 16.1816 9.38874 16.7906 8.98116C17.3997 8.57358 17.9016 8.02528 18.2538 7.38267L19.371 5.34736C19.6776 4.79469 20.1621 4.36195 20.7458 4.11949C21.3295 3.87702 21.978 3.83907 22.586 4.01182L24.8153 4.66232C25.5183 4.86711 26.2604 4.89968 26.9787 4.75729C27.697 4.61491 28.3705 4.30174 28.9423 3.84424L30.7602 2.38682C31.2526 1.98849 31.8667 1.77117 32.5 1.77117C33.1333 1.77117 33.7474 1.98849 34.2398 2.38682L36.0577 3.84322C36.6298 4.30036 37.3034 4.61333 38.0217 4.75579C38.74 4.89825 39.482 4.86602 40.1852 4.66182L42.414 4.01182C43.0223 3.83204 43.6738 3.86648 44.2597 4.10939C44.8456 4.35229 45.3304 4.78894 45.633 5.34635L46.7502 7.38217C47.1025 8.02486 47.6044 8.57318 48.2136 8.98069C48.8227 9.3882 49.5211 9.64289 50.2496 9.72318L52.5626 9.97709C53.1925 10.0438 53.7804 10.3245 54.2283 10.7723C54.6761 11.2202 54.9568 11.8081 55.0235 12.4379L55.2774 14.7515C55.358 15.4799 55.6129 16.1782 56.0204 16.7872C56.428 17.3962 56.9763 17.8981 57.6189 18.2504L59.6542 19.3676C60.2077 19.6743 60.6409 20.1594 60.8832 20.7439C61.1256 21.3284 61.1628 21.9777 60.9888 22.5861L60.3383 24.8154C60.1336 25.5184 60.101 26.2605 60.2434 26.9788C60.3858 27.697 60.6989 28.3705 61.1563 28.9424L62.6128 30.7603C63.011 31.2527 63.2283 31.8668 63.2283 32.5001C63.2283 33.1334 63.011 33.7475 62.6128 34.2399L61.1553 36.0578Z" fill="white"/>
</g>
<defs>
<clipPath id="clip0">
<rect width="65" height="65" fill="white"/>
</clipPath>
</defs>
</svg>
